<svg xmlns="http://www.w3.org/2000/svg" width="18.598" height="21.477" viewBox="0 0 18.598 21.477">
  <g id="icon_W" data-name="icon W" transform="translate(8156.613 -1375.004)">
    <path id="Path_8399" data-name="Path 8399" d="M8.118,3.652l1.3-2.269a.147.147,0,0,0-.056-.2A9.648,9.648,0,0,0,.075,1.2a.147.147,0,0,0-.055.2l1.315,2.26a.147.147,0,0,0,.2.054A6.738,6.738,0,0,1,7.92,3.708.147.147,0,0,0,8.118,3.652Z" transform="translate(-8155.854 1379.722) rotate(-30)" fill="#fff"/>
    <path id="Path_8399-2" data-name="Path 8399" d="M8.118,3.652l1.3-2.269a.147.147,0,0,0-.056-.2A9.648,9.648,0,0,0,.075,1.2a.147.147,0,0,0-.055.2l1.315,2.26a.147.147,0,0,0,.2.054A6.738,6.738,0,0,1,7.92,3.708.147.147,0,0,0,8.118,3.652Z" transform="translate(-8156.613 1390.463) rotate(-90)" fill="#fff"/>
    <path id="Path_8399-3" data-name="Path 8399" d="M8.118.082l1.3,2.269a.147.147,0,0,1-.056.2A9.648,9.648,0,0,1,.075,2.535a.147.147,0,0,1-.055-.2L1.335.073a.147.147,0,0,1,.2-.054A6.739,6.739,0,0,0,7.92.027.147.147,0,0,1,8.118.082Z" transform="translate(-8139.882 1382.959) rotate(-150)" fill="#fff"/>
    <path id="Path_8399-4" data-name="Path 8399" d="M8.118,3.652l1.3-2.269a.147.147,0,0,0-.056-.2A9.648,9.648,0,0,0,.075,1.2a.147.147,0,0,0-.055.2l1.315,2.26a.147.147,0,0,0,.2.054A6.738,6.738,0,0,1,7.92,3.708.147.147,0,0,0,8.118,3.652Z" transform="translate(-8147.713 1396.481) rotate(-150)" fill="#fff"/>
    <path id="Path_8399-5" data-name="Path 8399" d="M8.118,3.652l1.3-2.269a.147.147,0,0,0-.056-.2A9.648,9.648,0,0,0,.075,1.2a.147.147,0,0,0-.055.2l1.315,2.26a.147.147,0,0,0,.2.054A6.738,6.738,0,0,1,7.92,3.708.147.147,0,0,0,8.118,3.652Z" transform="translate(-8138.065 1391.759) rotate(150)" fill="#fff"/>
    <path id="Path_60720" data-name="Path 60720" d="M215.592,288.561a2.613,2.613,0,0,1-1.68.909h-1.981v-3.457a.014.014,0,0,1,.014-.014h1.574a1.162,1.162,0,0,1,1.162,1.162v.409h.33V283.9h-.33v.219a1.162,1.162,0,0,1-1.162,1.162h-1.588V281.82a.014.014,0,0,1,.014-.014h2.11a1.162,1.162,0,0,1,1.162,1.161v.574h.482v-2.636h-7.534v.449a.479.479,0,0,1,.249-.071h.354a.483.483,0,0,1,.483.483v7.749a.483.483,0,0,1-.483.483h-.354a.48.48,0,0,1-.249-.071v.3h7.929l.35-3.17h-.3A4.073,4.073,0,0,1,215.592,288.561Z" transform="translate(-8359.287 1100.063)" fill="#fff"/>
  </g>
</svg>
