<svg xmlns="http://www.w3.org/2000/svg" xmlns:xlink="http://www.w3.org/1999/xlink" width="19.913" height="22.995" viewBox="0 0 19.913 22.995">
  <defs>
    <linearGradient id="linear-gradient" x1="0.49" y1="-0.299" x2="0.525" y2="2.519" gradientUnits="objectBoundingBox">
      <stop offset="0" stop-color="#e16e09"/>
      <stop offset="0.381" stop-color="#f1bd32"/>
      <stop offset="0.921" stop-color="#e9961e"/>
      <stop offset="1" stop-color="#8f520b"/>
    </linearGradient>
    <linearGradient id="linear-gradient-2" x1="0.431" y1="-0.106" x2="0.576" y2="0.788" gradientUnits="objectBoundingBox">
      <stop offset="0" stop-color="#fff" stop-opacity="0"/>
      <stop offset="0.243" stop-color="#fff" stop-opacity="0.231"/>
      <stop offset="0.489" stop-color="#fff" stop-opacity="0.322"/>
      <stop offset="1" stop-color="#fff" stop-opacity="0"/>
    </linearGradient>
    <linearGradient id="linear-gradient-3" x1="1.2" y1="0.5" x2="0" y2="0.5" xlink:href="#linear-gradient"/>
    <linearGradient id="linear-gradient-5" x1="0.533" y1="1.734" x2="0.218" y2="-1.65" xlink:href="#linear-gradient"/>
    <linearGradient id="linear-gradient-6" x1="0.431" y1="1.106" x2="0.576" y2="0.212" xlink:href="#linear-gradient-2"/>
    <linearGradient id="linear-gradient-7" x1="0.358" y1="-0.122" x2="0.71" y2="2.608" xlink:href="#linear-gradient"/>
    <linearGradient id="linear-gradient-9" x1="0.737" y1="-0.005" x2="0.495" y2="2.681" xlink:href="#linear-gradient"/>
    <linearGradient id="linear-gradient-11" x1="0.433" y1="-0.278" x2="0.464" y2="1.864" gradientUnits="objectBoundingBox">
      <stop offset="0" stop-color="#e16e09"/>
      <stop offset="0.339" stop-color="#f1bd32"/>
      <stop offset="0.522" stop-color="#e9961e"/>
      <stop offset="1" stop-color="#8f520b"/>
    </linearGradient>
  </defs>
  <g id="Group_10973" data-name="Group 10973" transform="translate(-4871.721 6296.813)">
    <path id="Path_41971" data-name="Path 41971" d="M.22.18C.211.273.155.343.095.337S-.008.251,0,.158.066-.006.126,0,.229.087.22.18Z" transform="translate(4873.361 -6283.176) rotate(-30)" fill="#3d3a2a" opacity="0.54"/>
    <path id="Path_41968" data-name="Path 41968" d="M.218.224C.153.289.066.306.024.261S0,.127.062.062.213-.02.256.025.282.159.218.224Z" transform="translate(4874.103 -6287.826) rotate(-30)" fill="#3d3a2a" opacity="0.54"/>
    <path id="Path_41972" data-name="Path 41972" d="M.22.18C.211.273.155.343.095.337S-.008.251,0,.158.066-.006.126,0,.229.087.22.18Z" transform="translate(4873.355 -6283.169) rotate(-30)" fill="#3d3a2a" opacity="0.54"/>
    <g id="Group_10318" data-name="Group 10318" transform="translate(4873.065 -6291.335) rotate(-30)">
      <g id="Group_4102" data-name="Group 4102" transform="translate(0 0)">
        <g id="Group_4101" data-name="Group 4101">
          <path id="Path_8399" data-name="Path 8399" d="M8.118,3.652l1.3-2.269a.147.147,0,0,0-.056-.2A9.648,9.648,0,0,0,.075,1.2a.147.147,0,0,0-.055.2l1.315,2.26a.147.147,0,0,0,.2.054A6.738,6.738,0,0,1,7.92,3.708.147.147,0,0,0,8.118,3.652Z" transform="translate(0.001 0)" stroke="rgba(0,0,0,0)" stroke-width="1" fill="url(#linear-gradient)"/>
          <path id="Path_41973" data-name="Path 41973" d="M8.118,3.652l1.3-2.269a.147.147,0,0,0-.056-.2A9.648,9.648,0,0,0,.075,1.2a.147.147,0,0,0-.055.2l1.315,2.26a.147.147,0,0,0,.2.054A6.738,6.738,0,0,1,7.92,3.708.147.147,0,0,0,8.118,3.652Z" transform="translate(0.001 0)" opacity="0.52" fill="url(#linear-gradient-2)"/>
          <path id="Path_8400" data-name="Path 8400" d="M.374.09A3.8,3.8,0,0,0,.611.432a.266.266,0,0,1,.065.1L.7.644.755.69.777.753l-.052.315.153.056.473.9.049.169s.1.019.079.032,0,.1,0,.1l-.065.113s-.044,0-.1-.1L.029.128A.134.134,0,0,1,0,.019C.014-.049.374.09.374.09Z" transform="translate(0 1.289)" fill="#653a16" opacity="0.7"/>
          <path id="Path_8401" data-name="Path 8401" d="M.07.756.212.729.293.7.526.48l.1.063L.922.477A8.326,8.326,0,0,1,3.018,0C3.812,0,4.5.066,4.5.066l.179.167L4.814.092l.2.165.212,0L6.438.793l.116.089L6.575.846l.035.159s-.059.027-.163-.047A9.451,9.451,0,0,0,4.185.248,6.572,6.572,0,0,0,.858.656c-.466.2-.664.319-.765.355a.128.128,0,0,1-.093,0L.086.86.06.78Z" transform="translate(1.415 2.716)" fill="#491c06" opacity="0.6"/>
          <path id="Path_8402" data-name="Path 8402" d="M.365,1.367S.22,1.307.145,1.285A.441.441,0,0,0,0,1.268s0-.046.108-.1A9.421,9.421,0,0,1,3.093.126a10.314,10.314,0,0,1,3.5.047,11.549,11.549,0,0,1,2.45.82c.312.178.419.19.368.38a3.479,3.479,0,0,1-.338.618,4.11,4.11,0,0,0,.155-.4c.032-.122.061-.224.061-.224l-.069.049-.124-.174L8.917,1.21A5.1,5.1,0,0,0,6.785.352C5.509.151,4.892.1,4.892.1A15.424,15.424,0,0,0,2.661.41a1.045,1.045,0,0,1-.525.129L1.8.679s-1.16.377-1.175.372-.088.124-.088.124Z" transform="translate(0.009 0.011)" fill="#864d09" opacity="0.6"/>
          <g id="Group_4098" data-name="Group 4098" transform="translate(0.804 1.909)">
            <path id="Path_8403" data-name="Path 8403" d="M.044.066A.23.23,0,0,1,.12.038.425.425,0,0,1,.166.031.407.407,0,0,0,.261,0C.283-.007.313.011.336.036A.294.294,0,0,0,.4.083c-.007,0-.024,0-.032,0S.322.06.3.049l-.009,0a.027.027,0,0,0-.013,0C.211.07.138.064.07.087A.162.162,0,0,0,0,.116C0,.073.021.084.044.066Z" transform="translate(0.003 0.328)" fill="#e4ab39"/>
            <path id="Path_8404" data-name="Path 8404" d="M.164.023a.111.111,0,0,0-.04.019A.146.146,0,0,0,.1.077.963.963,0,0,0,0,.262.024.024,0,0,0,0,.276.032.032,0,0,0,.006.287.31.31,0,0,0,.048.334.251.251,0,0,0,.07.354L.088.361.06.32A.156.156,0,0,1,.04.285.057.057,0,0,1,.052.227L.122.117A.342.342,0,0,1,.168.056.278.278,0,0,1,.2.028.3.3,0,0,0,.242,0,.183.183,0,0,0,.164.023Z" transform="translate(0.307 0.028)" fill="#e4ab39"/>
            <path id="Path_8405" data-name="Path 8405" d="M.309.371A.127.127,0,0,0,.191.365C.133.387.015.406,0,.411A.033.033,0,0,0,.011.384C.086.358.2.353.256.292S.326.166.369.112A.355.355,0,0,1,.52.007L.535,0,.566.018.552.026C.527.04.417.077.424.1A1.132,1.132,0,0,0,.355.208C.35.217.343.226.336.235A.192.192,0,0,0,.3.308.657.657,0,0,0,.416.417C.38.424.345.39.309.371Z" fill="#8f5611"/>
          </g>
          <g id="Group_4099" data-name="Group 4099" transform="translate(2.022 0.362)">
            <path id="Path_8406" data-name="Path 8406" d="M0,.232l.462.25L.582.547.773,0,.49.023Z" transform="translate(0 0)" fill="#653a16" fill-rule="evenodd"/>
            <path id="Path_8407" data-name="Path 8407" d="M.092.547.019.173,0,.023.283,0Z" transform="translate(0.49 0)" fill="#e4ab39" fill-rule="evenodd" opacity="0.7"/>
          </g>
          <g id="Group_4100" data-name="Group 4100" transform="translate(0.725 2.053)">
            <path id="Path_8408" data-name="Path 8408" d="M.051,0,.02.182,0,.3.062.295.209.241Z" fill="#8f5611" fill-rule="evenodd"/>
            <path id="Path_8409" data-name="Path 8409" d="M0,.064.209,0,.188.074.153.119Z" transform="translate(0 0.241)" fill="#e4ab39" fill-rule="evenodd"/>
          </g>
          <path id="Path_8410" data-name="Path 8410" d="M.17,0,.189.476,0,.192Z" transform="translate(0.374 1.186)" fill="#e4ab39" fill-rule="evenodd"/>
          <path id="Path_8411" data-name="Path 8411" d="M0,2.05a3.577,3.577,0,0,0,.171-.362.266.266,0,0,1,.056-.107L.308,1.5l.015-.066.043-.051.3-.111L.639,1.113,1.185.256,1.3.142s-.081-.1-.062-.093A.606.606,0,0,0,1.384,0h.13s.019.04-.039.141L.2,2.344a.134.134,0,0,1-.081.078C.049,2.446,0,2.05,0,2.05Z" transform="translate(7.928 1.286)" fill="#653a16" opacity="0.8"/>
          <path id="Path_8412" data-name="Path 8412" d="M.3.114.009,0,0,.225Z" transform="translate(8.295 2.445)" fill="#8f5611" fill-rule="evenodd"/>
          <path id="Path_8413" data-name="Path 8413" d="M.29.161.263,0,0,.046Z" transform="translate(8.304 2.399)" fill="#e4ab39" fill-rule="evenodd"/>
          <path id="Path_8414" data-name="Path 8414" d="M0,0,.387.065.3.207.157.37Z" transform="translate(8.925 1.221)" fill="#e4ab39" fill-rule="evenodd"/>
          <path id="Path_8415" data-name="Path 8415" d="M.349.583,0,.373.1.122.44,0Z" transform="translate(7.635 3.04)" fill="#e4bb38" fill-rule="evenodd"/>
          <path id="Path_8416" data-name="Path 8416" d="M0,0,.494.175l.749.179a4.5,4.5,0,0,0-.532-.2A6.833,6.833,0,0,0,0,0Z" transform="translate(6.763 0.358)" fill="#e4bb38" fill-rule="evenodd"/>
          <path id="Path_8417" data-name="Path 8417" d="M0,.6,1.028.142,1.457.2,1.765,0l.805.133s-.9.088-1.191.14C1.031.335,0,.6,0,.6Z" transform="translate(2.337 2.589)" fill="#e4bb38" fill-rule="evenodd"/>
          <path id="Path_8418" data-name="Path 8418" d="M.017.134c-.026.3.289.11.211-.057A.118.118,0,1,0,.02.185Z" transform="translate(2.493 2.186)" fill="#e3bb38" fill-rule="evenodd"/>
          <path id="Path_8419" data-name="Path 8419" d="M.034.276C-.02.892.626.5.468.158A.242.242,0,1,0,.041.379Z" transform="translate(7.481 1.48)" fill="#deb038" fill-rule="evenodd" opacity="0.53"/>
          <path id="Path_8420" data-name="Path 8420" d="M.022.177C-.013.572.4.322.3.1A.155.155,0,1,0,.026.243Z" transform="translate(7.846 1.717)" fill="#e3bb39" fill-rule="evenodd"/>
          <path id="Path_8421" data-name="Path 8421" d="M.015.123C-.009.4.279.223.208.07a.108.108,0,1,0-.19.1Z" transform="translate(1.552 1.823)" fill="#e3bb38" fill-rule="evenodd"/>
        </g>
        <path id="Path_8422" data-name="Path 8422" d="M.227,0,.077.129,0,.036.025.265Z" transform="translate(1.4 3.445)" fill="#ae6a17" fill-rule="evenodd"/>
        <path id="Path_8423" data-name="Path 8423" d="M.077.129.227,0,0,.036Z" transform="translate(1.4 3.445)" fill="#e3bb38" fill-rule="evenodd"/>
      </g>
      <g id="Group_4107" data-name="Group 4107" transform="translate(7.425 0.892)">
        <path id="Path_8483" data-name="Path 8483" d="M.455.008A.542.542,0,0,0,.335.034C.313.04.292.05.27.058A.96.96,0,0,1,.126.1.11.11,0,0,0,.053.168.323.323,0,0,1,0,.245C.006.237.031.229.04.222.064.2.086.178.109.155L.118.148A.062.062,0,0,1,.136.141c.1-.026.194-.076.3-.1A.378.378,0,0,1,.547.019C.518-.015.5.007.455.008Z" transform="translate(0.484 0.023)" fill="#e4bb38"/>
        <path id="Path_8484" data-name="Path 8484" d="M.117.01A.258.258,0,0,1,.183,0,.254.254,0,0,1,.241.01,1.388,1.388,0,0,1,.495.092.022.022,0,0,1,.507.1a.021.021,0,0,1,0,.012A.254.254,0,0,1,.484.176.224.224,0,0,1,.47.2L.451.222.46.173a.1.1,0,0,0,0-.039C.455.106.431.1.406.1L.237.056a.6.6,0,0,0-.1-.018.586.586,0,0,0-.066,0A.653.653,0,0,1,0,.042.43.43,0,0,1,.117.01Z" transform="translate(0.03 0.023)" fill="#e4bb38"/>
        <path id="Path_8485" data-name="Path 8485" d="M.581.178A.253.253,0,0,1,.731.1C.822.079.99.02,1.012.014A.04.04,0,0,1,.98,0,1.408,1.408,0,0,1,.6.083C.5.076.416.031.323.017A.779.779,0,0,0,.054.031l-.025,0L0,.068l.025,0C.066.061.237.019.239.038.3.048.353.067.408.081L.451.09a.285.285,0,0,1,.1.031A.61.61,0,0,1,.473.28C.524.263.548.215.581.178Z" fill="#925913"/>
      </g>
    </g>
    <g id="Group_10329" data-name="Group 10329" transform="translate(4872.308 -6280.595) rotate(-90)">
      <g id="Group_4102-2" data-name="Group 4102" transform="translate(0 0)">
        <g id="Group_4101-2" data-name="Group 4101">
          <path id="Path_8399-2" data-name="Path 8399" d="M8.118,3.652l1.3-2.269a.147.147,0,0,0-.056-.2A9.648,9.648,0,0,0,.075,1.2a.147.147,0,0,0-.055.2l1.315,2.26a.147.147,0,0,0,.2.054A6.738,6.738,0,0,1,7.92,3.708.147.147,0,0,0,8.118,3.652Z" transform="translate(0.001 0)" stroke="rgba(0,0,0,0)" stroke-width="1" fill="url(#linear-gradient-3)"/>
          <path id="Path_41973-2" data-name="Path 41973" d="M8.118,3.652l1.3-2.269a.147.147,0,0,0-.056-.2A9.648,9.648,0,0,0,.075,1.2a.147.147,0,0,0-.055.2l1.315,2.26a.147.147,0,0,0,.2.054A6.738,6.738,0,0,1,7.92,3.708.147.147,0,0,0,8.118,3.652Z" transform="translate(0.001 0)" opacity="0.52" fill="url(#linear-gradient-2)"/>
          <path id="Path_8400-2" data-name="Path 8400" d="M.374.09A3.8,3.8,0,0,0,.611.432a.266.266,0,0,1,.065.1L.7.644.755.69.777.753l-.052.315.153.056.473.9.049.169s.1.019.079.032,0,.1,0,.1l-.065.113s-.044,0-.1-.1L.029.128A.134.134,0,0,1,0,.019C.014-.049.374.09.374.09Z" transform="translate(0 1.289)" fill="#653a16" opacity="0.8"/>
          <path id="Path_8401-2" data-name="Path 8401" d="M.07.756.212.729.293.7.526.48l.1.063L.922.477A8.326,8.326,0,0,1,3.018,0C3.812,0,4.5.066,4.5.066l.179.167L4.814.092l.2.165.212,0L6.438.793l.116.089L6.575.846l.035.159s-.059.027-.163-.047A9.451,9.451,0,0,0,4.185.248,6.573,6.573,0,0,0,.858.656c-.466.2-.664.319-.765.355a.128.128,0,0,1-.093,0L.086.86.06.78Z" transform="translate(1.415 2.716)" fill="#491c06" opacity="0.6"/>
          <path id="Path_8402-2" data-name="Path 8402" d="M.365,1.367S.22,1.307.145,1.285A.441.441,0,0,0,0,1.268s0-.046.108-.1A9.42,9.42,0,0,1,3.093.126a10.315,10.315,0,0,1,3.5.047,11.549,11.549,0,0,1,2.45.82c.312.178.419.19.368.38a3.479,3.479,0,0,1-.338.618,4.111,4.111,0,0,0,.155-.4c.032-.122.061-.224.061-.224l-.069.049-.124-.174L8.917,1.21A5.1,5.1,0,0,0,6.785.352C5.509.151,4.892.1,4.892.1A15.426,15.426,0,0,0,2.661.41a1.045,1.045,0,0,1-.525.129L1.8.679s-1.16.377-1.175.372-.088.124-.088.124Z" transform="translate(0.008 0.011)" fill="#864d09" opacity="0.6"/>
          <g id="Group_4098-2" data-name="Group 4098" transform="translate(0.803 1.909)">
            <path id="Path_8403-2" data-name="Path 8403" d="M.044.066A.23.23,0,0,1,.12.038.422.422,0,0,1,.166.031.407.407,0,0,0,.261,0C.283-.007.313.011.336.036A.294.294,0,0,0,.4.083c-.007,0-.024,0-.032,0S.322.06.3.049l-.009,0a.027.027,0,0,0-.013,0C.211.07.138.064.07.087A.162.162,0,0,0,0,.116C0,.073.021.084.044.066Z" transform="translate(0.003 0.328)" fill="#e4ab39"/>
            <path id="Path_8404-2" data-name="Path 8404" d="M.164.023a.111.111,0,0,0-.04.019A.145.145,0,0,0,.1.077.962.962,0,0,0,0,.262.024.024,0,0,0,0,.276.032.032,0,0,0,.006.287.312.312,0,0,0,.048.334.245.245,0,0,0,.07.354L.088.361.06.32A.156.156,0,0,1,.04.285.057.057,0,0,1,.052.227L.122.117A.341.341,0,0,1,.168.056.278.278,0,0,1,.2.028.3.3,0,0,0,.242,0,.183.183,0,0,0,.164.023Z" transform="translate(0.307 0.028)" fill="#e4ab39"/>
            <path id="Path_8405-2" data-name="Path 8405" d="M.309.371A.127.127,0,0,0,.191.365C.133.387.015.406,0,.411A.033.033,0,0,0,.011.384C.086.358.2.353.256.292S.326.166.369.112A.355.355,0,0,1,.52.007L.535,0,.566.018.552.026C.527.04.417.077.424.1A1.133,1.133,0,0,0,.355.208C.35.217.343.226.336.235A.193.193,0,0,0,.3.308.659.659,0,0,0,.416.417C.38.424.345.39.309.371Z" transform="translate(0 0)" fill="#8f5611"/>
          </g>
          <g id="Group_4099-2" data-name="Group 4099" transform="translate(2.022 0.362)">
            <path id="Path_8406-2" data-name="Path 8406" d="M0,.232l.462.25L.582.547.773,0,.49.023Z" transform="translate(0 0)" fill="#653a16" fill-rule="evenodd"/>
            <path id="Path_8407-2" data-name="Path 8407" d="M.092.547.019.173,0,.023.283,0Z" transform="translate(0.49 0)" fill="#e4ab39" fill-rule="evenodd" opacity="0.7"/>
          </g>
          <g id="Group_4100-2" data-name="Group 4100" transform="translate(0.725 2.053)">
            <path id="Path_8408-2" data-name="Path 8408" d="M.051,0,.02.182,0,.3.062.295.209.241Z" transform="translate(0 0)" fill="#8f5611" fill-rule="evenodd"/>
            <path id="Path_8409-2" data-name="Path 8409" d="M0,.064.209,0,.188.074.153.119Z" transform="translate(0 0.241)" fill="#e4ab39" fill-rule="evenodd"/>
          </g>
          <path id="Path_8410-2" data-name="Path 8410" d="M.17,0,.189.476,0,.192Z" transform="translate(0.374 1.186)" fill="#e4ab39" fill-rule="evenodd"/>
          <path id="Path_8411-2" data-name="Path 8411" d="M0,2.05a3.58,3.58,0,0,0,.171-.362.266.266,0,0,1,.056-.107L.308,1.5l.015-.066.043-.051.3-.111L.639,1.113,1.185.256,1.3.142s-.081-.1-.062-.093A.607.607,0,0,0,1.384,0h.13s.019.04-.039.141L.2,2.344a.134.134,0,0,1-.081.078C.049,2.446,0,2.05,0,2.05Z" transform="translate(7.928 1.286)" fill="#653a16" opacity="0.8"/>
          <path id="Path_8412-2" data-name="Path 8412" d="M.3.114.009,0,0,.225Z" transform="translate(8.295 2.445)" fill="#8f5611" fill-rule="evenodd"/>
          <path id="Path_8413-2" data-name="Path 8413" d="M.29.161.263,0,0,.046Z" transform="translate(8.304 2.399)" fill="#e4ab39" fill-rule="evenodd"/>
          <path id="Path_8414-2" data-name="Path 8414" d="M0,0,.387.065.3.207.157.37Z" transform="translate(8.925 1.221)" fill="#e4ab39" fill-rule="evenodd"/>
          <path id="Path_8415-2" data-name="Path 8415" d="M.349.583,0,.373.1.122.44,0Z" transform="translate(7.635 3.04)" fill="#e4bb38" fill-rule="evenodd"/>
          <path id="Path_8416-2" data-name="Path 8416" d="M0,0,.494.175l.749.179a4.5,4.5,0,0,0-.532-.2A6.831,6.831,0,0,0,0,0Z" transform="translate(6.763 0.358)" fill="#e4bb38" fill-rule="evenodd"/>
          <path id="Path_8417-2" data-name="Path 8417" d="M0,.6,1.028.142,1.457.2,1.765,0l.805.133s-.9.088-1.191.14C1.031.335,0,.6,0,.6Z" transform="translate(2.337 2.589)" fill="#e4bb38" fill-rule="evenodd"/>
          <path id="Path_8418-2" data-name="Path 8418" d="M.017.134c-.026.3.289.11.211-.057A.118.118,0,1,0,.02.185Z" transform="translate(2.493 2.186)" fill="#e3bb38" fill-rule="evenodd"/>
          <path id="Path_8419-2" data-name="Path 8419" d="M.034.276C-.02.892.626.5.468.158A.242.242,0,1,0,.041.379Z" transform="translate(7.481 1.48)" fill="#deb038" fill-rule="evenodd" opacity="0.53"/>
          <path id="Path_8420-2" data-name="Path 8420" d="M.022.177C-.013.572.4.321.3.1A.155.155,0,1,0,.026.243Z" transform="translate(7.846 1.716)" fill="#e3bb39" fill-rule="evenodd"/>
          <path id="Path_8421-2" data-name="Path 8421" d="M.015.123C-.009.4.279.223.208.07a.108.108,0,1,0-.19.1Z" transform="translate(1.552 1.823)" fill="#e3bb38" fill-rule="evenodd"/>
        </g>
        <path id="Path_8422-2" data-name="Path 8422" d="M.227,0,.077.129,0,.036.025.265Z" transform="translate(1.4 3.445)" fill="#ae6a17" fill-rule="evenodd"/>
        <path id="Path_8423-2" data-name="Path 8423" d="M.077.129.227,0,0,.036Z" transform="translate(1.4 3.445)" fill="#e3bb38" fill-rule="evenodd"/>
      </g>
      <g id="Group_4107-2" data-name="Group 4107" transform="translate(7.425 0.891)">
        <path id="Path_8483-2" data-name="Path 8483" d="M.455.008A.543.543,0,0,0,.335.034C.313.04.292.05.27.058A.963.963,0,0,1,.126.1.11.11,0,0,0,.053.168.322.322,0,0,1,0,.245C.006.237.031.229.04.222.064.2.086.178.109.155L.118.148A.062.062,0,0,1,.136.141c.1-.026.194-.076.3-.1A.377.377,0,0,1,.547.019C.518-.015.5.007.455.008Z" transform="translate(0.484 0.023)" fill="#e4bb38"/>
        <path id="Path_8484-2" data-name="Path 8484" d="M.117.01A.257.257,0,0,1,.183,0,.254.254,0,0,1,.241.01,1.389,1.389,0,0,1,.495.092.022.022,0,0,1,.507.1a.021.021,0,0,1,0,.012A.253.253,0,0,1,.484.176.229.229,0,0,1,.47.2L.451.222.46.173a.1.1,0,0,0,0-.039C.455.106.431.1.406.1L.237.056a.6.6,0,0,0-.1-.018.588.588,0,0,0-.066,0A.654.654,0,0,1,0,.042.429.429,0,0,1,.117.01Z" transform="translate(0.03 0.023)" fill="#e4bb38"/>
        <path id="Path_8485-2" data-name="Path 8485" d="M.581.178A.253.253,0,0,1,.731.1C.822.079.99.02,1.012.014A.04.04,0,0,1,.98,0,1.409,1.409,0,0,1,.6.083C.5.076.416.031.323.017A.78.78,0,0,0,.054.031l-.025,0L0,.068l.025,0C.066.061.237.019.239.038.3.048.353.067.408.081L.451.09a.285.285,0,0,1,.1.031A.611.611,0,0,1,.473.28C.524.263.548.215.581.178Z" transform="translate(0 0)" fill="#925913"/>
      </g>
    </g>
    <g id="Group_10333" data-name="Group 10333" transform="translate(4889.038 -6288.097) rotate(-150)">
      <g id="Group_4102-3" data-name="Group 4102" transform="translate(0 0)">
        <g id="Group_4101-3" data-name="Group 4101" transform="translate(0 0)">
          <path id="Path_8399-3" data-name="Path 8399" d="M8.118.082l1.3,2.269a.147.147,0,0,1-.056.2A9.648,9.648,0,0,1,.075,2.535a.147.147,0,0,1-.055-.2L1.335.073a.147.147,0,0,1,.2-.054A6.739,6.739,0,0,0,7.92.027.147.147,0,0,1,8.118.082Z" transform="translate(0 0.001)" stroke="rgba(0,0,0,0)" stroke-width="1" fill="url(#linear-gradient-5)"/>
          <path id="Path_41973-3" data-name="Path 41973" d="M8.118.082l1.3,2.269a.147.147,0,0,1-.056.2A9.648,9.648,0,0,1,.075,2.535a.147.147,0,0,1-.055-.2L1.335.073a.147.147,0,0,1,.2-.054A6.739,6.739,0,0,0,7.92.027.147.147,0,0,1,8.118.082Z" transform="translate(0 0.001)" opacity="0.52" fill="url(#linear-gradient-6)"/>
          <path id="Path_8400-3" data-name="Path 8400" d="M.374,2.346A3.8,3.8,0,0,1,.611,2a.266.266,0,0,0,.065-.1L.7,1.792l.05-.046.023-.063L.725,1.368l.153-.056.473-.9L1.4.244s.1-.019.079-.032,0-.1,0-.1L1.41,0s-.044,0-.1.1L.029,2.308A.134.134,0,0,0,0,2.417C.014,2.485.374,2.346.374,2.346Z" transform="translate(0 0.011)" fill="#653a16"/>
          <path id="Path_8401-3" data-name="Path 8401" d="M.07.264.212.291.293.324.526.54l.1-.063L.922.543a8.326,8.326,0,0,0,2.1.477C3.812,1.024,4.5.954,4.5.954L4.677.787l.137.141.2-.165.212,0L6.438.227,6.554.137l.021.037L6.61.015s-.059-.027-.163.047a9.452,9.452,0,0,1-2.262.71A6.573,6.573,0,0,1,.858.364C.392.159.194.045.093.009A.128.128,0,0,0,0,.008L.086.16.06.24Z" transform="translate(1.415 0)" fill="#491c06" opacity="0.6"/>
          <path id="Path_8402-3" data-name="Path 8402" d="M.365.624S.22.683.145.705A.441.441,0,0,1,0,.722s0,.046.108.1a9.42,9.42,0,0,0,2.985,1.04,10.314,10.314,0,0,0,3.5-.047A11.55,11.55,0,0,0,9.041,1c.312-.178.419-.19.368-.38A3.479,3.479,0,0,0,9.071,0a4.11,4.11,0,0,1,.155.4c.032.122.061.224.061.224L9.217.574,9.093.748,8.917.78a5.1,5.1,0,0,1-2.132.858c-1.277.2-1.893.25-1.893.25a15.425,15.425,0,0,1-2.23-.309,1.045,1.045,0,0,0-.525-.129L1.8,1.312S.639.935.623.94.535.816.535.816Z" transform="translate(0.008 1.734)" fill="#864d09" opacity="0.6"/>
          <g id="Group_4098-3" data-name="Group 4098" transform="translate(0.803 1.382)">
            <path id="Path_8403-3" data-name="Path 8403" d="M.044.05A.23.23,0,0,0,.12.079.422.422,0,0,0,.166.085.407.407,0,0,1,.261.114C.283.123.313.1.336.08A.294.294,0,0,1,.4.033c-.007,0-.024,0-.032,0S.322.057.3.067L.291.07a.026.026,0,0,1-.013,0C.211.046.138.052.07.03A.162.162,0,0,1,0,0C0,.043.021.032.044.05Z" transform="translate(0.003 0)" fill="#e4ab39"/>
            <path id="Path_8404-3" data-name="Path 8404" d="M.164.338A.111.111,0,0,1,.124.319.145.145,0,0,1,.1.284.963.963,0,0,1,0,.1.025.025,0,0,1,0,.085.032.032,0,0,1,.006.074.312.312,0,0,1,.048.027.246.246,0,0,1,.07.008L.088,0,.06.041A.156.156,0,0,0,.04.076.057.057,0,0,0,.052.134l.071.11A.342.342,0,0,0,.168.306.278.278,0,0,0,.2.333.3.3,0,0,1,.242.361.183.183,0,0,1,.164.338Z" transform="translate(0.307 0.055)" fill="#e4ab39"/>
            <path id="Path_8405-3" data-name="Path 8405" d="M.309.047A.127.127,0,0,1,.191.053C.133.031.015.012,0,.007A.033.033,0,0,1,.011.034C.086.06.2.065.256.126s.071.126.114.18a.355.355,0,0,0,.151.1L.535.418.566.4.552.392C.527.378.417.341.424.323A1.136,1.136,0,0,1,.355.21C.35.2.343.192.336.183A.193.193,0,0,1,.3.11.659.659,0,0,1,.416,0C.38-.006.345.027.309.047Z" transform="translate(0 0.026)" fill="#8f5611"/>
          </g>
          <g id="Group_4099-3" data-name="Group 4099" transform="translate(2.022 2.827)">
            <path id="Path_8406-3" data-name="Path 8406" d="M0,.316.462.066.582,0,.773.547.49.524Z" transform="translate(0 0)" fill="#653a16" fill-rule="evenodd"/>
            <path id="Path_8407-3" data-name="Path 8407" d="M.092,0,.019.374,0,.524.283.547Z" transform="translate(0.49 0)" fill="#e4ab39" fill-rule="evenodd" opacity="0.7"/>
          </g>
          <g id="Group_4100-3" data-name="Group 4100" transform="translate(0.725 1.323)">
            <path id="Path_8408-3" data-name="Path 8408" d="M.051.3.02.122,0,0,.062.01.209.064Z" transform="translate(0 0.056)" fill="#8f5611" fill-rule="evenodd"/>
            <path id="Path_8409-3" data-name="Path 8409" d="M0,.056.209.119.188.046.153,0Z" transform="translate(0 0)" fill="#e4ab39" fill-rule="evenodd"/>
          </g>
          <path id="Path_8410-3" data-name="Path 8410" d="M.17.476.189,0,0,.284Z" transform="translate(0.374 2.074)" fill="#e4ab39" fill-rule="evenodd"/>
          <path id="Path_8411-3" data-name="Path 8411" d="M0,.373A3.579,3.579,0,0,1,.171.735.266.266,0,0,0,.226.842L.308.921.323.987l.043.051.3.111L.639,1.31l.546.857.112.114s-.081.1-.062.093a.607.607,0,0,1,.149.048h.13s.019-.04-.039-.141L.2.079A.134.134,0,0,0,.114,0C.049-.023,0,.373,0,.373Z" transform="translate(7.928 0.027)" fill="#653a16" opacity="0.7"/>
          <path id="Path_8412-3" data-name="Path 8412" d="M.3.111.009.225,0,0Z" transform="translate(8.295 1.065)" fill="#8f5611" fill-rule="evenodd"/>
          <path id="Path_8413-3" data-name="Path 8413" d="M.29,0,.263.161,0,.114Z" transform="translate(8.304 1.176)" fill="#e4ab39" fill-rule="evenodd"/>
          <path id="Path_8414-3" data-name="Path 8414" d="M0,.37.387.305.3.163.157,0Z" transform="translate(8.925 2.144)" fill="#e4ab39" fill-rule="evenodd"/>
          <path id="Path_8415-3" data-name="Path 8415" d="M.349,0,0,.211.1.461.44.583Z" transform="translate(7.635 0.113)" fill="#e4bb38" fill-rule="evenodd"/>
          <path id="Path_8416-3" data-name="Path 8416" d="M0,.354.494.179,1.243,0A4.5,4.5,0,0,1,.711.2,6.831,6.831,0,0,1,0,.354Z" transform="translate(6.763 3.023)" fill="#e4bb38" fill-rule="evenodd"/>
          <path id="Path_8417-3" data-name="Path 8417" d="M0,0,1.028.462,1.457.4l.309.2L2.571.471S1.675.383,1.38.331C1.031.268,0,0,0,0Z" transform="translate(2.337 0.543)" fill="#e4bb38" fill-rule="evenodd"/>
          <path id="Path_8418-3" data-name="Path 8418" d="M.017.158c-.026-.3.289-.11.211.057A.118.118,0,1,1,.02.108Z" transform="translate(2.493 1.257)" fill="#e3bb38" fill-rule="evenodd"/>
          <path id="Path_8419-3" data-name="Path 8419" d="M.034.324C-.02-.292.626.1.468.442A.242.242,0,1,1,.041.221Z" transform="translate(7.481 1.656)" fill="#deb038" fill-rule="evenodd" opacity="0.53"/>
          <path id="Path_8420-3" data-name="Path 8420" d="M.022.208C-.013-.187.4.063.3.283A.155.155,0,1,1,.026.141Z" transform="translate(7.846 1.635)" fill="#e3bb39" fill-rule="evenodd"/>
          <path id="Path_8421-3" data-name="Path 8421" d="M.015.145C-.009-.13.279.044.208.2A.108.108,0,1,1,.018.1Z" transform="translate(1.552 1.645)" fill="#e3bb38" fill-rule="evenodd"/>
        </g>
        <path id="Path_8422-3" data-name="Path 8422" d="M.227.265.077.136,0,.229.025,0Z" transform="translate(1.4 0.026)" fill="#ae6a17" fill-rule="evenodd"/>
        <path id="Path_8423-3" data-name="Path 8423" d="M.077,0l.15.129L0,.093Z" transform="translate(1.4 0.162)" fill="#e3bb38" fill-rule="evenodd"/>
      </g>
      <g id="Group_4107-3" data-name="Group 4107" transform="translate(7.425 2.565)">
        <path id="Path_8483-3" data-name="Path 8483" d="M.455.237A.543.543,0,0,1,.335.211C.313.2.292.195.27.187A.963.963,0,0,0,.126.149.11.11,0,0,1,.053.077.322.322,0,0,0,0,0C.006.008.031.015.04.023c.024.02.046.044.069.066L.118.1A.062.062,0,0,0,.136.1c.1.026.194.076.3.1A.377.377,0,0,0,.547.226C.518.26.5.238.455.237Z" transform="translate(0.484 0.012)" fill="#e4bb38"/>
        <path id="Path_8484-3" data-name="Path 8484" d="M.117.211a.257.257,0,0,0,.066.01A.254.254,0,0,0,.241.212,1.389,1.389,0,0,0,.495.13.022.022,0,0,0,.507.12a.021.021,0,0,0,0-.012A.253.253,0,0,0,.484.046.229.229,0,0,0,.47.017L.451,0,.46.049a.1.1,0,0,1,0,.039C.455.115.431.12.406.126L.237.166a.6.6,0,0,1-.1.018.589.589,0,0,1-.066,0A.655.655,0,0,0,0,.18.429.429,0,0,0,.117.211Z" transform="translate(0.03 0.035)" fill="#e4bb38"/>
        <path id="Path_8485-3" data-name="Path 8485" d="M.581.1a.253.253,0,0,0,.15.079C.822.2.99.26,1.012.265A.04.04,0,0,0,.98.28,1.409,1.409,0,0,0,.6.2C.5.2.416.248.323.263A.78.78,0,0,1,.054.248l-.025,0L0,.211l.025,0C.066.219.237.26.239.241.3.232.353.213.408.2L.451.189a.285.285,0,0,0,.1-.031A.611.611,0,0,0,.473,0C.524.017.548.065.581.1Z" transform="translate(0 0)" fill="#925913"/>
      </g>
    </g>
    <g id="Group_10330" data-name="Group 10330" transform="translate(4881.208 -6274.577) rotate(-150)">
      <g id="Group_4102-4" data-name="Group 4102" transform="translate(0 0)">
        <g id="Group_4101-4" data-name="Group 4101">
          <path id="Path_8399-4" data-name="Path 8399" d="M8.118,3.652l1.3-2.269a.147.147,0,0,0-.056-.2A9.648,9.648,0,0,0,.075,1.2a.147.147,0,0,0-.055.2l1.315,2.26a.147.147,0,0,0,.2.054A6.738,6.738,0,0,1,7.92,3.708.147.147,0,0,0,8.118,3.652Z" transform="translate(0.001 0)" stroke="rgba(0,0,0,0)" stroke-width="1" fill="url(#linear-gradient-7)"/>
          <path id="Path_41973-4" data-name="Path 41973" d="M8.118,3.652l1.3-2.269a.147.147,0,0,0-.056-.2A9.648,9.648,0,0,0,.075,1.2a.147.147,0,0,0-.055.2l1.315,2.26a.147.147,0,0,0,.2.054A6.738,6.738,0,0,1,7.92,3.708.147.147,0,0,0,8.118,3.652Z" transform="translate(0.001 0)" opacity="0.52" fill="url(#linear-gradient-2)"/>
          <path id="Path_8400-4" data-name="Path 8400" d="M.374.09A3.8,3.8,0,0,0,.611.432a.266.266,0,0,1,.065.1L.7.644.755.69.777.753l-.052.315.153.056.473.9.049.169s.1.019.079.032,0,.1,0,.1l-.065.113s-.044,0-.1-.1L.029.128A.134.134,0,0,1,0,.019C.014-.049.374.09.374.09Z" transform="translate(0 1.289)" fill="#653a16" opacity="0.7"/>
          <path id="Path_8401-4" data-name="Path 8401" d="M.07.756.212.729.293.7.526.48l.1.063L.922.477A8.326,8.326,0,0,1,3.018,0C3.812,0,4.5.066,4.5.066l.179.167L4.814.092l.2.165.212,0L6.438.793l.116.089L6.575.846l.035.159s-.059.027-.163-.047A9.451,9.451,0,0,0,4.185.248,6.573,6.573,0,0,0,.858.656c-.466.2-.664.319-.765.355a.128.128,0,0,1-.093,0L.086.86.06.78Z" transform="translate(1.415 2.716)" fill="#491c06" opacity="0.6"/>
          <path id="Path_8402-4" data-name="Path 8402" d="M.365,1.367S.22,1.307.145,1.285A.441.441,0,0,0,0,1.268s0-.046.108-.1A9.42,9.42,0,0,1,3.093.126a10.315,10.315,0,0,1,3.5.047,11.549,11.549,0,0,1,2.45.82c.312.178.419.19.368.38a3.479,3.479,0,0,1-.338.618,4.111,4.111,0,0,0,.155-.4c.032-.122.061-.224.061-.224l-.069.049-.124-.174L8.917,1.21A5.1,5.1,0,0,0,6.785.352C5.509.151,4.892.1,4.892.1A15.425,15.425,0,0,0,2.661.41a1.045,1.045,0,0,1-.525.129L1.8.679s-1.16.377-1.175.372-.088.124-.088.124Z" transform="translate(0.008 0.011)" fill="#864d09" opacity="0.6"/>
          <g id="Group_4098-4" data-name="Group 4098" transform="translate(0.803 1.909)">
            <path id="Path_8403-4" data-name="Path 8403" d="M.044.066A.23.23,0,0,1,.12.038.422.422,0,0,1,.166.031.407.407,0,0,0,.261,0C.283-.007.313.011.336.036A.294.294,0,0,0,.4.083c-.007,0-.024,0-.032,0S.322.06.3.049l-.009,0a.027.027,0,0,0-.013,0C.211.07.138.064.07.087A.162.162,0,0,0,0,.116C0,.073.021.084.044.066Z" transform="translate(0.003 0.328)" fill="#e4ab39"/>
            <path id="Path_8404-4" data-name="Path 8404" d="M.164.023a.111.111,0,0,0-.04.019A.145.145,0,0,0,.1.077.962.962,0,0,0,0,.262.024.024,0,0,0,0,.276.032.032,0,0,0,.006.287.312.312,0,0,0,.048.334.245.245,0,0,0,.07.354L.088.361.06.32A.156.156,0,0,1,.04.285.057.057,0,0,1,.052.227L.122.117A.341.341,0,0,1,.168.056.278.278,0,0,1,.2.028.3.3,0,0,0,.242,0,.183.183,0,0,0,.164.023Z" transform="translate(0.307 0.028)" fill="#e4ab39"/>
            <path id="Path_8405-4" data-name="Path 8405" d="M.309.371A.127.127,0,0,0,.191.365C.133.387.015.406,0,.411A.033.033,0,0,0,.011.384C.086.358.2.353.256.292S.326.166.369.112A.355.355,0,0,1,.52.007L.535,0,.566.018.552.026C.527.04.417.077.424.1A1.133,1.133,0,0,0,.355.208C.35.217.343.226.336.235A.193.193,0,0,0,.3.308.659.659,0,0,0,.416.417C.38.424.345.39.309.371Z" transform="translate(0 0)" fill="#8f5611"/>
          </g>
          <g id="Group_4099-4" data-name="Group 4099" transform="translate(2.022 0.362)">
            <path id="Path_8406-4" data-name="Path 8406" d="M0,.232l.462.25L.582.547.773,0,.49.023Z" transform="translate(0 0)" fill="#653a16" fill-rule="evenodd"/>
            <path id="Path_8407-4" data-name="Path 8407" d="M.092.547.019.173,0,.023.283,0Z" transform="translate(0.49 0)" fill="#e4ab39" fill-rule="evenodd" opacity="0.7"/>
          </g>
          <g id="Group_4100-4" data-name="Group 4100" transform="translate(0.725 2.053)">
            <path id="Path_8408-4" data-name="Path 8408" d="M.051,0,.02.182,0,.3.062.295.209.241Z" transform="translate(0 0)" fill="#8f5611" fill-rule="evenodd"/>
            <path id="Path_8409-4" data-name="Path 8409" d="M0,.064.209,0,.188.074.153.119Z" transform="translate(0 0.241)" fill="#e4ab39" fill-rule="evenodd"/>
          </g>
          <path id="Path_8410-4" data-name="Path 8410" d="M.17,0,.189.476,0,.192Z" transform="translate(0.374 1.186)" fill="#e4ab39" fill-rule="evenodd"/>
          <path id="Path_8411-4" data-name="Path 8411" d="M0,2.05a3.58,3.58,0,0,0,.171-.362.266.266,0,0,1,.056-.107L.308,1.5l.015-.066.043-.051.3-.111L.639,1.113,1.185.256,1.3.142s-.081-.1-.062-.093A.607.607,0,0,0,1.384,0h.13s.019.04-.039.141L.2,2.344a.134.134,0,0,1-.081.078C.049,2.446,0,2.05,0,2.05Z" transform="translate(7.928 1.286)" fill="#653a16" opacity="0.7"/>
          <path id="Path_8412-4" data-name="Path 8412" d="M.3.114.009,0,0,.225Z" transform="translate(8.295 2.445)" fill="#8f5611" fill-rule="evenodd"/>
          <path id="Path_8413-4" data-name="Path 8413" d="M.29.161.263,0,0,.046Z" transform="translate(8.304 2.399)" fill="#e4ab39" fill-rule="evenodd"/>
          <path id="Path_8414-4" data-name="Path 8414" d="M0,0,.387.065.3.207.157.37Z" transform="translate(8.925 1.221)" fill="#e4ab39" fill-rule="evenodd"/>
          <path id="Path_8415-4" data-name="Path 8415" d="M.349.583,0,.373.1.122.44,0Z" transform="translate(7.635 3.04)" fill="#e4bb38" fill-rule="evenodd"/>
          <path id="Path_8416-4" data-name="Path 8416" d="M0,0,.494.175l.749.179a4.5,4.5,0,0,0-.532-.2A6.831,6.831,0,0,0,0,0Z" transform="translate(6.763 0.358)" fill="#e4bb38" fill-rule="evenodd"/>
          <path id="Path_8417-4" data-name="Path 8417" d="M0,.6,1.028.142,1.457.2,1.765,0l.805.133s-.9.088-1.191.14C1.031.335,0,.6,0,.6Z" transform="translate(2.337 2.589)" fill="#e4bb38" fill-rule="evenodd"/>
          <path id="Path_8418-4" data-name="Path 8418" d="M.017.134c-.026.3.289.11.211-.057A.118.118,0,1,0,.02.185Z" transform="translate(2.493 2.186)" fill="#e3bb38" fill-rule="evenodd"/>
          <path id="Path_8419-4" data-name="Path 8419" d="M.034.276C-.02.892.626.5.468.158A.242.242,0,1,0,.041.379Z" transform="translate(7.481 1.48)" fill="#deb038" fill-rule="evenodd" opacity="0.53"/>
          <path id="Path_8420-4" data-name="Path 8420" d="M.022.177C-.013.572.4.321.3.1A.155.155,0,1,0,.026.243Z" transform="translate(7.846 1.716)" fill="#e3bb39" fill-rule="evenodd"/>
          <path id="Path_8421-4" data-name="Path 8421" d="M.015.123C-.009.4.279.223.208.07a.108.108,0,1,0-.19.1Z" transform="translate(1.552 1.823)" fill="#e3bb38" fill-rule="evenodd"/>
        </g>
        <path id="Path_8422-4" data-name="Path 8422" d="M.227,0,.077.129,0,.036.025.265Z" transform="translate(1.4 3.445)" fill="#ae6a17" fill-rule="evenodd"/>
        <path id="Path_8423-4" data-name="Path 8423" d="M.077.129.227,0,0,.036Z" transform="translate(1.4 3.445)" fill="#e3bb38" fill-rule="evenodd"/>
      </g>
      <g id="Group_4107-4" data-name="Group 4107" transform="translate(7.425 0.891)">
        <path id="Path_8483-4" data-name="Path 8483" d="M.455.008A.543.543,0,0,0,.335.034C.313.04.292.05.27.058A.963.963,0,0,1,.126.1.11.11,0,0,0,.053.168.322.322,0,0,1,0,.245C.006.237.031.229.04.222.064.2.086.178.109.155L.118.148A.062.062,0,0,1,.136.141c.1-.026.194-.076.3-.1A.377.377,0,0,1,.547.019C.518-.015.5.007.455.008Z" transform="translate(0.484 0.023)" fill="#e4bb38"/>
        <path id="Path_8484-4" data-name="Path 8484" d="M.117.01A.257.257,0,0,1,.183,0,.254.254,0,0,1,.241.01,1.389,1.389,0,0,1,.495.092.022.022,0,0,1,.507.1a.021.021,0,0,1,0,.012A.253.253,0,0,1,.484.176.229.229,0,0,1,.47.2L.451.222.46.173a.1.1,0,0,0,0-.039C.455.106.431.1.406.1L.237.056a.6.6,0,0,0-.1-.018.588.588,0,0,0-.066,0A.654.654,0,0,1,0,.042.429.429,0,0,1,.117.01Z" transform="translate(0.03 0.023)" fill="#e4bb38"/>
        <path id="Path_8485-4" data-name="Path 8485" d="M.581.178A.253.253,0,0,1,.731.1C.822.079.99.02,1.012.014A.04.04,0,0,1,.98,0,1.409,1.409,0,0,1,.6.083C.5.076.416.031.323.017A.78.78,0,0,0,.054.031l-.025,0L0,.068l.025,0C.066.061.237.019.239.038.3.048.353.067.408.081L.451.09a.285.285,0,0,1,.1.031A.611.611,0,0,1,.473.28C.524.263.548.215.581.178Z" transform="translate(0 0)" fill="#925913"/>
      </g>
    </g>
    <g id="Group_10331" data-name="Group 10331" transform="translate(4890.856 -6279.3) rotate(150)">
      <g id="Group_4102-5" data-name="Group 4102" transform="translate(0 0)">
        <g id="Group_4101-5" data-name="Group 4101">
          <path id="Path_8399-5" data-name="Path 8399" d="M8.118,3.652l1.3-2.269a.147.147,0,0,0-.056-.2A9.648,9.648,0,0,0,.075,1.2a.147.147,0,0,0-.055.2l1.315,2.26a.147.147,0,0,0,.2.054A6.738,6.738,0,0,1,7.92,3.708.147.147,0,0,0,8.118,3.652Z" transform="translate(0 0)" stroke="rgba(0,0,0,0)" stroke-width="1" fill="url(#linear-gradient-9)"/>
          <path id="Path_41973-5" data-name="Path 41973" d="M8.118,3.652l1.3-2.269a.147.147,0,0,0-.056-.2A9.648,9.648,0,0,0,.075,1.2a.147.147,0,0,0-.055.2l1.315,2.26a.147.147,0,0,0,.2.054A6.738,6.738,0,0,1,7.92,3.708.147.147,0,0,0,8.118,3.652Z" transform="translate(0 0)" opacity="0.52" fill="url(#linear-gradient-2)"/>
          <path id="Path_8400-5" data-name="Path 8400" d="M.374.09A3.8,3.8,0,0,0,.611.432a.266.266,0,0,1,.065.1L.7.644.755.69.777.753l-.052.315.153.056.473.9.049.169s.1.019.079.032,0,.1,0,.1l-.065.113s-.044,0-.1-.1L.029.128A.134.134,0,0,1,0,.019C.014-.049.374.09.374.09Z" transform="translate(0 1.289)" fill="#653a16" opacity="0.7"/>
          <path id="Path_8401-5" data-name="Path 8401" d="M.07.756.212.729.293.7.526.48l.1.063L.922.477A8.326,8.326,0,0,1,3.018,0C3.812,0,4.5.066,4.5.066l.179.167L4.814.092l.2.165.212,0L6.438.793l.116.089L6.575.846l.035.159s-.059.027-.163-.047A9.452,9.452,0,0,0,4.185.248,6.573,6.573,0,0,0,.858.656c-.466.2-.664.319-.765.355a.128.128,0,0,1-.093,0L.086.86.06.78Z" transform="translate(1.415 2.716)" fill="#491c06" opacity="0.6"/>
          <path id="Path_8402-5" data-name="Path 8402" d="M.365,1.367S.22,1.307.145,1.285A.441.441,0,0,0,0,1.268s0-.046.108-.1A9.42,9.42,0,0,1,3.093.126a10.315,10.315,0,0,1,3.5.047,11.549,11.549,0,0,1,2.45.82c.312.178.419.19.368.38a3.479,3.479,0,0,1-.338.618,4.109,4.109,0,0,0,.155-.4c.032-.122.061-.224.061-.224l-.069.049-.124-.174L8.917,1.21A5.1,5.1,0,0,0,6.785.352C5.509.151,4.892.1,4.892.1A15.425,15.425,0,0,0,2.661.41a1.045,1.045,0,0,1-.525.129L1.8.679s-1.16.377-1.175.372-.088.124-.088.124Z" transform="translate(0.008 0.011)" fill="#864d09" opacity="0.6"/>
          <g id="Group_4098-5" data-name="Group 4098" transform="translate(0.803 1.909)">
            <path id="Path_8403-5" data-name="Path 8403" d="M.044.066A.23.23,0,0,1,.12.038.422.422,0,0,1,.166.031.407.407,0,0,0,.261,0C.283-.007.313.011.336.036A.294.294,0,0,0,.4.083c-.007,0-.024,0-.032,0S.322.06.3.049l-.009,0a.027.027,0,0,0-.013,0C.211.07.138.064.07.087A.162.162,0,0,0,0,.116C0,.073.021.084.044.066Z" transform="translate(0.003 0.328)" fill="#e4ab39"/>
            <path id="Path_8404-5" data-name="Path 8404" d="M.164.023a.111.111,0,0,0-.04.019A.145.145,0,0,0,.1.077.964.964,0,0,0,0,.262.025.025,0,0,0,0,.276.032.032,0,0,0,.006.287.312.312,0,0,0,.048.334.246.246,0,0,0,.07.354L.088.361.06.32A.157.157,0,0,1,.04.285.057.057,0,0,1,.052.227L.122.117A.341.341,0,0,1,.168.056.278.278,0,0,1,.2.028.3.3,0,0,0,.242,0,.183.183,0,0,0,.164.023Z" transform="translate(0.307 0.028)" fill="#e4ab39"/>
            <path id="Path_8405-5" data-name="Path 8405" d="M.309.371A.127.127,0,0,0,.191.365C.133.387.015.406,0,.411A.033.033,0,0,0,.011.384C.086.358.2.353.256.292S.326.166.369.112A.355.355,0,0,1,.52.007L.535,0,.566.018.552.026C.527.04.417.077.424.1A1.135,1.135,0,0,0,.355.208C.35.217.343.226.336.235A.193.193,0,0,0,.3.308.659.659,0,0,0,.416.417C.38.424.345.39.309.371Z" transform="translate(0 0)" fill="#8f5611"/>
          </g>
          <g id="Group_4099-5" data-name="Group 4099" transform="translate(2.022 0.362)">
            <path id="Path_8406-5" data-name="Path 8406" d="M0,.232l.462.25L.582.547.773,0,.49.023Z" transform="translate(0 0)" fill="#653a16" fill-rule="evenodd"/>
            <path id="Path_8407-5" data-name="Path 8407" d="M.092.547.019.173,0,.023.283,0Z" transform="translate(0.49 0)" fill="#e4ab39" fill-rule="evenodd" opacity="0.7"/>
          </g>
          <g id="Group_4100-5" data-name="Group 4100" transform="translate(0.725 2.053)">
            <path id="Path_8408-5" data-name="Path 8408" d="M.051,0,.02.182,0,.3.062.295.209.241Z" transform="translate(0 0)" fill="#8f5611" fill-rule="evenodd"/>
            <path id="Path_8409-5" data-name="Path 8409" d="M0,.064.209,0,.188.074.153.119Z" transform="translate(0 0.241)" fill="#e4ab39" fill-rule="evenodd"/>
          </g>
          <path id="Path_8410-5" data-name="Path 8410" d="M.17,0,.189.476,0,.192Z" transform="translate(0.374 1.186)" fill="#e4ab39" fill-rule="evenodd"/>
          <path id="Path_8411-5" data-name="Path 8411" d="M0,2.05a3.58,3.58,0,0,0,.171-.362.266.266,0,0,1,.056-.107L.308,1.5l.015-.066.043-.051.3-.111L.639,1.113,1.185.256,1.3.142s-.081-.1-.062-.093A.607.607,0,0,0,1.384,0h.13s.019.04-.039.141L.2,2.344a.134.134,0,0,1-.081.078C.049,2.446,0,2.05,0,2.05Z" transform="translate(7.928 1.286)" fill="#653a16" opacity="0.8"/>
          <path id="Path_8412-5" data-name="Path 8412" d="M.3.114.009,0,0,.225Z" transform="translate(8.295 2.445)" fill="#8f5611" fill-rule="evenodd"/>
          <path id="Path_8413-5" data-name="Path 8413" d="M.29.161.263,0,0,.046Z" transform="translate(8.304 2.399)" fill="#e4ab39" fill-rule="evenodd"/>
          <path id="Path_8414-5" data-name="Path 8414" d="M0,0,.387.065.3.207.157.37Z" transform="translate(8.925 1.221)" fill="#e4ab39" fill-rule="evenodd"/>
          <path id="Path_8415-5" data-name="Path 8415" d="M.349.583,0,.373.1.122.44,0Z" transform="translate(7.635 3.04)" fill="#e4bb38" fill-rule="evenodd"/>
          <path id="Path_8416-5" data-name="Path 8416" d="M0,0,.494.175l.749.179a4.5,4.5,0,0,0-.532-.2A6.831,6.831,0,0,0,0,0Z" transform="translate(6.763 0.358)" fill="#e4bb38" fill-rule="evenodd"/>
          <path id="Path_8417-5" data-name="Path 8417" d="M0,.6,1.028.142,1.457.2,1.765,0l.805.133s-.9.088-1.191.14C1.031.335,0,.6,0,.6Z" transform="translate(2.337 2.589)" fill="#e4bb38" fill-rule="evenodd"/>
          <path id="Path_8418-5" data-name="Path 8418" d="M.017.134c-.026.3.289.11.211-.057A.118.118,0,1,0,.02.185Z" transform="translate(2.493 2.186)" fill="#e3bb38" fill-rule="evenodd"/>
          <path id="Path_8419-5" data-name="Path 8419" d="M.034.276C-.02.892.626.5.468.158A.242.242,0,1,0,.041.379Z" transform="translate(7.481 1.48)" fill="#deb038" fill-rule="evenodd" opacity="0.53"/>
          <path id="Path_8420-5" data-name="Path 8420" d="M.022.177C-.013.572.4.321.3.1A.155.155,0,1,0,.026.243Z" transform="translate(7.846 1.716)" fill="#e3bb39" fill-rule="evenodd"/>
          <path id="Path_8421-5" data-name="Path 8421" d="M.015.123C-.009.4.279.223.208.07a.108.108,0,1,0-.19.1Z" transform="translate(1.552 1.823)" fill="#e3bb38" fill-rule="evenodd"/>
        </g>
        <path id="Path_8422-5" data-name="Path 8422" d="M.227,0,.077.129,0,.036.025.265Z" transform="translate(1.4 3.445)" fill="#ae6a17" fill-rule="evenodd"/>
        <path id="Path_8423-5" data-name="Path 8423" d="M.077.129.227,0,0,.036Z" transform="translate(1.4 3.445)" fill="#e3bb38" fill-rule="evenodd"/>
      </g>
      <g id="Group_4107-5" data-name="Group 4107" transform="translate(7.425 0.891)">
        <path id="Path_8483-5" data-name="Path 8483" d="M.455.008A.543.543,0,0,0,.335.034C.313.04.292.05.27.058A.963.963,0,0,1,.126.1.11.11,0,0,0,.053.168.322.322,0,0,1,0,.245C.006.237.031.229.04.222.064.2.086.178.109.155L.118.148A.062.062,0,0,1,.136.141c.1-.026.194-.076.3-.1A.377.377,0,0,1,.547.019C.518-.015.5.007.455.008Z" transform="translate(0.484 0.023)" fill="#e4bb38"/>
        <path id="Path_8484-5" data-name="Path 8484" d="M.117.01A.257.257,0,0,1,.183,0,.254.254,0,0,1,.241.01,1.388,1.388,0,0,1,.495.092.022.022,0,0,1,.507.1a.021.021,0,0,1,0,.012A.253.253,0,0,1,.484.176.229.229,0,0,1,.47.2L.451.222.46.173a.1.1,0,0,0,0-.039C.455.106.431.1.406.1L.237.056a.6.6,0,0,0-.1-.018.588.588,0,0,0-.066,0A.653.653,0,0,1,0,.042.429.429,0,0,1,.117.01Z" transform="translate(0.03 0.023)" fill="#e4bb38"/>
        <path id="Path_8485-5" data-name="Path 8485" d="M.581.178A.253.253,0,0,1,.731.1C.822.079.99.02,1.012.014A.04.04,0,0,1,.98,0,1.409,1.409,0,0,1,.6.083C.5.076.416.031.323.017A.78.78,0,0,0,.054.031l-.025,0L0,.068l.025,0C.066.061.237.019.239.038.3.048.353.067.408.081L.451.09a.285.285,0,0,1,.1.031A.611.611,0,0,1,.473.28C.524.263.548.215.581.178Z" transform="translate(0 0)" fill="#925913"/>
      </g>
    </g>
    <g id="Group_10317" data-name="Group 10317" transform="translate(4884.529 -6292.752) rotate(-30)">
      <g id="Group_8101" data-name="Group 8101" transform="translate(1.548 0) rotate(60)">
        <g id="Ellipse_2549" data-name="Ellipse 2549" transform="translate(0 0)" fill="none" stroke="#653a16" stroke-width="0.2">
          <ellipse cx="0.387" cy="0.387" rx="0.387" ry="0.387" stroke="none"/>
          <ellipse cx="0.387" cy="0.387" rx="0.287" ry="0.287" fill="none"/>
        </g>
        <g id="Ellipse_2550" data-name="Ellipse 2550" transform="translate(0.904 0)" fill="none" stroke="#653a16" stroke-width="0.2">
          <ellipse cx="0.387" cy="0.387" rx="0.387" ry="0.387" stroke="none"/>
          <ellipse cx="0.387" cy="0.387" rx="0.287" ry="0.287" fill="none"/>
        </g>
        <g id="Ellipse_2551" data-name="Ellipse 2551" transform="translate(0 0.904)" fill="none" stroke="#653a16" stroke-width="0.2">
          <ellipse cx="0.387" cy="0.387" rx="0.387" ry="0.387" stroke="none"/>
          <ellipse cx="0.387" cy="0.387" rx="0.287" ry="0.287" fill="none"/>
        </g>
        <g id="Ellipse_2552" data-name="Ellipse 2552" transform="translate(0.904 0.904)" fill="none" stroke="#653a16" stroke-width="0.2">
          <ellipse cx="0.387" cy="0.387" rx="0.387" ry="0.387" stroke="none"/>
          <ellipse cx="0.387" cy="0.387" rx="0.287" ry="0.287" fill="none"/>
        </g>
      </g>
      <g id="Group_10065" data-name="Group 10065" transform="translate(1.454 0) rotate(60)" opacity="0.82">
        <g id="Ellipse_2549-2" data-name="Ellipse 2549" transform="translate(0 0)" fill="none" stroke="#f8da88" stroke-width="0.2">
          <ellipse cx="0.387" cy="0.387" rx="0.387" ry="0.387" stroke="none"/>
          <ellipse cx="0.387" cy="0.387" rx="0.287" ry="0.287" fill="none"/>
        </g>
        <g id="Ellipse_2550-2" data-name="Ellipse 2550" transform="translate(0.904 0)" fill="none" stroke="#f8da88" stroke-width="0.2">
          <ellipse cx="0.387" cy="0.387" rx="0.387" ry="0.387" stroke="none"/>
          <ellipse cx="0.387" cy="0.387" rx="0.287" ry="0.287" fill="none"/>
        </g>
        <g id="Ellipse_2551-2" data-name="Ellipse 2551" transform="translate(0 0.904)" fill="none" stroke="#f8da88" stroke-width="0.2">
          <ellipse cx="0.387" cy="0.387" rx="0.387" ry="0.387" stroke="none"/>
          <ellipse cx="0.387" cy="0.387" rx="0.287" ry="0.287" fill="none"/>
        </g>
        <g id="Ellipse_2552-2" data-name="Ellipse 2552" transform="translate(0.904 0.904)" fill="none" stroke="#f8da88" stroke-width="0.2">
          <ellipse cx="0.387" cy="0.387" rx="0.387" ry="0.387" stroke="none"/>
          <ellipse cx="0.387" cy="0.387" rx="0.287" ry="0.287" fill="none"/>
        </g>
      </g>
    </g>
    <g id="Group_10325" data-name="Group 10325" transform="translate(4884.452 -6278.238) rotate(-30)">
      <g id="Group_8102" data-name="Group 8102" transform="translate(0.095 0)">
        <g id="Ellipse_2538" data-name="Ellipse 2538" transform="translate(0 0)" fill="none" stroke="#653a16" stroke-width="0.2">
          <ellipse cx="0.389" cy="0.389" rx="0.389" ry="0.389" stroke="none"/>
          <ellipse cx="0.389" cy="0.389" rx="0.289" ry="0.289" fill="none"/>
        </g>
        <g id="Ellipse_2539" data-name="Ellipse 2539" transform="translate(0.907 0)" fill="none" stroke="#653a16" stroke-width="0.2">
          <ellipse cx="0.389" cy="0.389" rx="0.389" ry="0.389" stroke="none"/>
          <ellipse cx="0.389" cy="0.389" rx="0.289" ry="0.289" fill="none"/>
        </g>
        <g id="Ellipse_2540" data-name="Ellipse 2540" transform="translate(1.815 0)" fill="none" stroke="#653a16" stroke-width="0.2">
          <ellipse cx="0.389" cy="0.389" rx="0.389" ry="0.389" stroke="none"/>
          <ellipse cx="0.389" cy="0.389" rx="0.289" ry="0.289" fill="none"/>
        </g>
        <g id="Ellipse_2541" data-name="Ellipse 2541" transform="translate(0 0.907)" fill="none" stroke="#653a16" stroke-width="0.2">
          <ellipse cx="0.389" cy="0.389" rx="0.389" ry="0.389" stroke="none"/>
          <ellipse cx="0.389" cy="0.389" rx="0.289" ry="0.289" fill="none"/>
        </g>
        <g id="Ellipse_2542" data-name="Ellipse 2542" transform="translate(0.907 0.907)" fill="none" stroke="#653a16" stroke-width="0.2">
          <ellipse cx="0.389" cy="0.389" rx="0.389" ry="0.389" stroke="none"/>
          <ellipse cx="0.389" cy="0.389" rx="0.289" ry="0.289" fill="none"/>
        </g>
        <g id="Ellipse_2543" data-name="Ellipse 2543" transform="translate(1.815 0.907)" fill="none" stroke="#653a16" stroke-width="0.2">
          <ellipse cx="0.389" cy="0.389" rx="0.389" ry="0.389" stroke="none"/>
          <ellipse cx="0.389" cy="0.389" rx="0.289" ry="0.289" fill="none"/>
        </g>
      </g>
      <g id="Group_10067" data-name="Group 10067" transform="translate(0 0)" opacity="0.82">
        <g id="Ellipse_2538-2" data-name="Ellipse 2538" fill="none" stroke="#ffe79a" stroke-width="0.2">
          <ellipse cx="0.389" cy="0.389" rx="0.389" ry="0.389" stroke="none"/>
          <ellipse cx="0.389" cy="0.389" rx="0.289" ry="0.289" fill="none"/>
        </g>
        <g id="Ellipse_2539-2" data-name="Ellipse 2539" transform="translate(0.907 0)" fill="none" stroke="#ffe79a" stroke-width="0.2">
          <ellipse cx="0.389" cy="0.389" rx="0.389" ry="0.389" stroke="none"/>
          <ellipse cx="0.389" cy="0.389" rx="0.289" ry="0.289" fill="none"/>
        </g>
        <g id="Ellipse_2540-2" data-name="Ellipse 2540" transform="translate(1.815 0)" fill="none" stroke="#ffe79a" stroke-width="0.2">
          <ellipse cx="0.389" cy="0.389" rx="0.389" ry="0.389" stroke="none"/>
          <ellipse cx="0.389" cy="0.389" rx="0.289" ry="0.289" fill="none"/>
        </g>
        <g id="Ellipse_2541-2" data-name="Ellipse 2541" transform="translate(0 0.907)" fill="none" stroke="#ffe79a" stroke-width="0.2">
          <ellipse cx="0.389" cy="0.389" rx="0.389" ry="0.389" stroke="none"/>
          <ellipse cx="0.389" cy="0.389" rx="0.289" ry="0.289" fill="none"/>
        </g>
        <g id="Ellipse_2542-2" data-name="Ellipse 2542" transform="translate(0.907 0.907)" fill="none" stroke="#ffe79a" stroke-width="0.2">
          <ellipse cx="0.389" cy="0.389" rx="0.389" ry="0.389" stroke="none"/>
          <ellipse cx="0.389" cy="0.389" rx="0.289" ry="0.289" fill="none"/>
        </g>
        <g id="Ellipse_2543-2" data-name="Ellipse 2543" transform="translate(1.815 0.907)" fill="none" stroke="#ffe79a" stroke-width="0.2">
          <ellipse cx="0.389" cy="0.389" rx="0.389" ry="0.389" stroke="none"/>
          <ellipse cx="0.389" cy="0.389" rx="0.289" ry="0.289" fill="none"/>
        </g>
      </g>
    </g>
    <g id="Group_10326" data-name="Group 10326" transform="translate(4871.875 -6285.743) rotate(-30)">
      <g id="Group_8103" data-name="Group 8103" transform="translate(0.095 2.034) rotate(-60)">
        <g id="Ellipse_2544" data-name="Ellipse 2544" transform="translate(0.783 0.457)" fill="none" stroke="#653a16" stroke-width="0.2">
          <ellipse cx="0.391" cy="0.391" rx="0.391" ry="0.391" stroke="none"/>
          <ellipse cx="0.391" cy="0.391" rx="0.291" ry="0.291" fill="none"/>
        </g>
        <g id="Ellipse_2545" data-name="Ellipse 2545" transform="translate(0 0)" fill="none" stroke="#653a16" stroke-width="0.2">
          <ellipse cx="0.391" cy="0.391" rx="0.391" ry="0.391" stroke="none"/>
          <ellipse cx="0.391" cy="0.391" rx="0.291" ry="0.291" fill="none"/>
        </g>
        <g id="Ellipse_2547" data-name="Ellipse 2547" transform="translate(1.566 0)" fill="none" stroke="#653a16" stroke-width="0.2">
          <ellipse cx="0.391" cy="0.391" rx="0.391" ry="0.391" stroke="none"/>
          <ellipse cx="0.391" cy="0.391" rx="0.291" ry="0.291" fill="none"/>
        </g>
        <g id="Ellipse_2546" data-name="Ellipse 2546" transform="translate(0 0.913)" fill="none" stroke="#653a16" stroke-width="0.2">
          <ellipse cx="0.391" cy="0.391" rx="0.391" ry="0.391" stroke="none"/>
          <ellipse cx="0.391" cy="0.391" rx="0.291" ry="0.291" fill="none"/>
        </g>
        <g id="Ellipse_2548" data-name="Ellipse 2548" transform="translate(1.566 0.913)" fill="none" stroke="#653a16" stroke-width="0.2">
          <ellipse cx="0.391" cy="0.391" rx="0.391" ry="0.391" stroke="none"/>
          <ellipse cx="0.391" cy="0.391" rx="0.291" ry="0.291" fill="none"/>
        </g>
      </g>
      <g id="Group_10068" data-name="Group 10068" transform="translate(0 2.034) rotate(-60)" opacity="0.82">
        <g id="Ellipse_2544-2" data-name="Ellipse 2544" transform="translate(0.782 0.457)" fill="none" stroke="#f6d884" stroke-width="0.2">
          <ellipse cx="0.391" cy="0.391" rx="0.391" ry="0.391" stroke="none"/>
          <ellipse cx="0.391" cy="0.391" rx="0.291" ry="0.291" fill="none"/>
        </g>
        <g id="Ellipse_2545-2" data-name="Ellipse 2545" transform="translate(0 0)" fill="none" stroke="#f6d884" stroke-width="0.2">
          <ellipse cx="0.391" cy="0.391" rx="0.391" ry="0.391" stroke="none"/>
          <ellipse cx="0.391" cy="0.391" rx="0.291" ry="0.291" fill="none"/>
        </g>
        <g id="Ellipse_2547-2" data-name="Ellipse 2547" transform="translate(1.566 0)" fill="none" stroke="#f6d884" stroke-width="0.2">
          <ellipse cx="0.391" cy="0.391" rx="0.391" ry="0.391" stroke="none"/>
          <ellipse cx="0.391" cy="0.391" rx="0.291" ry="0.291" fill="none"/>
        </g>
        <g id="Ellipse_2546-2" data-name="Ellipse 2546" transform="translate(0 0.913)" fill="none" stroke="#f6d884" stroke-width="0.2">
          <ellipse cx="0.391" cy="0.391" rx="0.391" ry="0.391" stroke="none"/>
          <ellipse cx="0.391" cy="0.391" rx="0.291" ry="0.291" fill="none"/>
        </g>
        <g id="Ellipse_2548-2" data-name="Ellipse 2548" transform="translate(1.566 0.913)" fill="none" stroke="#f6d884" stroke-width="0.2">
          <ellipse cx="0.391" cy="0.391" rx="0.391" ry="0.391" stroke="none"/>
          <ellipse cx="0.391" cy="0.391" rx="0.291" ry="0.291" fill="none"/>
        </g>
      </g>
    </g>
    <g id="Group_10327" data-name="Group 10327" transform="translate(4875.49 -6293.048) rotate(-30)">
      <path id="Path_8666" data-name="Path 8666" d="M1.017,0H.991L.975,0,.95.01h0a.212.212,0,0,0-.116.1.223.223,0,0,0,0,.216,2.028,2.028,0,0,0-.7.357,1.943,1.943,0,0,0,.059.8.211.211,0,0,0-.167.111.222.222,0,0,0,0,.218h0l.013.02,0,0a.214.214,0,0,0,.025.027l.007.006a.211.211,0,0,0,.031.022L.132,1.9h0l.492.283A.137.137,0,0,0,.8,2.123l.053.03a.25.25,0,0,0,.3-.038l.036.007h.005l.063.011s-.006.007-.008.012c-.028.051.04.1.148.115l.02,0a.214.214,0,0,0,.105.193.2.2,0,0,0,.278-.076.266.266,0,0,0,.329-.124A.282.282,0,0,0,2.157,2.1a.133.133,0,0,0,.109-.07.14.14,0,0,0-.008-.146.139.139,0,0,0,.125-.073.148.148,0,0,0,0-.142A.271.271,0,0,0,2.5,1.559.282.282,0,0,0,2.425,1.2a.215.215,0,0,0-.1-.237A.2.2,0,0,0,2.1.979C2.028.891,1.949.844,1.921.9a.168.168,0,0,0-.009.022L1.872.867l0-.006h0L1.847.838a.266.266,0,0,0-.121-.3L1.673.507A.145.145,0,0,0,1.632.323L1.14.04h0L1.117.027A.208.208,0,0,0,1.076.009l-.014,0L1.034,0Z" transform="translate(1.267 3.436) rotate(-120)" fill="#634000" opacity="0.57"/>
      <path id="Path_8667" data-name="Path 8667" d="M0,.034.2,0l.09.05a.25.25,0,0,1,.1.341L.363.44Z" transform="translate(1.01 1.947) rotate(-120)" fill="#634000"/>
      <path id="Path_8668" data-name="Path 8668" d="M0,0,.078.19l.09.05a.253.253,0,0,0,.343-.1L.538.094Z" transform="translate(2.546 1.913) rotate(-120)" fill="#634000"/>
      <ellipse id="Ellipse_1177" data-name="Ellipse 1177" cx="0.204" cy="0.203" rx="0.204" ry="0.203" transform="matrix(0.49, 0.872, -0.872, 0.49, 1.242, 0.674)" fill="#634000"/>
      <ellipse id="Ellipse_1178" data-name="Ellipse 1178" cx="0.139" cy="0.138" rx="0.139" ry="0.138" transform="translate(1.689 0.449) rotate(60.672)" fill="#634000"/>
      <ellipse id="Ellipse_1179" data-name="Ellipse 1179" cx="0.204" cy="0.203" rx="0.204" ry="0.203" transform="translate(2.463 0.659) rotate(60.675)" fill="#634000"/>
      <ellipse id="Ellipse_1180" data-name="Ellipse 1180" cx="0.132" cy="0.131" rx="0.132" ry="0.131" transform="translate(1.925 0.448) rotate(60.672)" fill="#634000"/>
      <path id="Path_8669" data-name="Path 8669" d="M.817.308A.141.141,0,0,1,.85.5L.7.77.295.4A.209.209,0,0,1,.107.388.207.207,0,0,1,.027.106.209.209,0,0,1,.31.026L.332.04h0Z" transform="translate(0.918 2.713) rotate(-120)" fill="#b27911"/>
      <path id="Path_8670" data-name="Path 8670" d="M.678.308A.141.141,0,0,1,.71.5L.667.579a1.121,1.121,0,0,0-.35-.4A1.264,1.264,0,0,0,0,.012.209.209,0,0,1,.171.026L.192.04h0Z" transform="translate(0.848 2.592) rotate(-120)" fill="#e9bf4d"/>
      <path id="Path_8671" data-name="Path 8671" d="M.415.181.948.327.8.6A.142.142,0,0,1,.614.67L.129.4h0L.107.388A.207.207,0,0,1,.026.106.209.209,0,0,1,.31.026.207.207,0,0,1,.415.181Z" transform="translate(2.533 2.694) rotate(-120)" fill="#b27911"/>
      <path id="Path_8672" data-name="Path 8672" d="M0,0,.086.036A2.659,2.659,0,0,0,.8.219L.768.282A.142.142,0,0,1,.585.356L.1.087h0L.077.075A.206.206,0,0,1,0,0Z" transform="translate(2.79 2.512) rotate(-120)" fill="#e9bf4d"/>
      <ellipse id="Ellipse_1181" data-name="Ellipse 1181" cx="0.147" cy="0.147" rx="0.147" ry="0.147" transform="matrix(0.489, 0.872, -0.872, 0.489, 2.662, 2.213)" fill="#634000"/>
      <ellipse id="Ellipse_2570" data-name="Ellipse 2570" cx="0.147" cy="0.147" rx="0.147" ry="0.147" transform="matrix(0.489, 0.872, -0.872, 0.489, 1.054, 2.213)" fill="#634000"/>
      <ellipse id="Ellipse_1184" data-name="Ellipse 1184" cx="0.066" cy="0.066" rx="0.066" ry="0.066" transform="translate(0.925 1.803) rotate(60.684)" fill="#634000"/>
      <ellipse id="Ellipse_1186" data-name="Ellipse 1186" cx="0.066" cy="0.062" rx="0.066" ry="0.062" transform="translate(2.734 1.8) rotate(87.046)" fill="#634000"/>
      <ellipse id="Ellipse_1187" data-name="Ellipse 1187" cx="0.047" cy="0.044" rx="0.047" ry="0.044" transform="matrix(0.052, 0.999, -0.999, 0.052, 2.751, 1.987)" fill="#634000"/>
      <ellipse id="Ellipse_2572" data-name="Ellipse 2572" cx="0.047" cy="0.044" rx="0.047" ry="0.044" transform="matrix(0.052, 0.999, -0.999, 0.052, 0.91, 2.012)" fill="#634000"/>
      <ellipse id="Ellipse_1188" data-name="Ellipse 1188" cx="0.094" cy="0.093" rx="0.094" ry="0.093" transform="translate(2.637 2.284) rotate(60.682)" fill="#e9bf4d"/>
      <ellipse id="Ellipse_2571" data-name="Ellipse 2571" cx="0.094" cy="0.093" rx="0.094" ry="0.093" transform="translate(1.029 2.284) rotate(60.682)" fill="#e9bf4d"/>
      <path id="Path_8673" data-name="Path 8673" d="M.017.36s-.13.845.326,1.1c.57.317,1.268.484,1.566-.047S1.6.324,1.128.06C.7-.176.017.36.017.36Z" transform="translate(1.507 3.152) rotate(-120)" fill="#634000"/>
      <path id="Path_8674" data-name="Path 8674" d="M.013.332S-.1,1.143.351,1.394c.565.314,1.253.486,1.537-.02S1.571.324,1.1.062C.678-.172.013.332.013.332Z" transform="translate(1.528 3.116) rotate(-120)" fill="#b27911"/>
      <path id="Path_8675" data-name="Path 8675" d="M.02.323s-.131.737.281.966c.516.287,1.145.442,1.409-.028S1.426.294.995.054C.611-.159.02.323.02.323Z" transform="translate(1.539 3.065) rotate(-120)" fill="#cc9226"/>
      <path id="Path_8676" data-name="Path 8676" d="M.044.336s-.13.73.275.963L.3,1.289C-.111,1.06.02.323.02.323S.611-.159.995.054l.017.01C.628-.14.044.336.044.336Z" transform="translate(1.539 3.065) rotate(-120)" fill="#634000"/>
      <path id="Path_8677" data-name="Path 8677" d="M.748,0c.405.258.84.71.6,1.138C1.095,1.589.5,1.464,0,1.2.4,1,.047.544.748,0Z" transform="translate(1.465 2.69) rotate(-120)" fill="#e9bf4d"/>
      <path id="Path_8678" data-name="Path 8678" d="M.271.08A.174.174,0,0,0,.26.22a.2.2,0,0,1,0,.158h0A.225.225,0,0,1,.107.47h0A.137.137,0,0,0,0,.61.153.153,0,0,0,.125.754.357.357,0,0,0,.385.705a.519.519,0,0,0,.189-.2A.432.432,0,0,0,.63.273.343.343,0,0,0,.523.047.16.16,0,0,0,.328.022.157.157,0,0,0,.271.08Z" transform="translate(1.616 2.93) rotate(-120)" fill="#634000"/>
      <path id="Path_8679" data-name="Path 8679" d="M.2.333C.157.337.086.215,0,.02c.184-.026.367-.04.388.036S.253.33.2.333Z" transform="translate(1.806 2.846) rotate(-120)" fill="#634000"/>
      <path id="Path_8680" data-name="Path 8680" d="M.156.191a.194.194,0,0,0,0,.185C.076.317-.03.186.008.1.058-.006.289-.022.436.025l.008,0A.307.307,0,0,0,.156.191Z" transform="translate(2.207 2.075) rotate(-120)" fill="#634000"/>
      <path id="Path_8681" data-name="Path 8681" d="M.185.13a.3.3,0,0,0,.06.361h0A.34.34,0,0,1,.19.453C.073.353-.046.147.018.049c.05-.078.23-.05.326,0A.177.177,0,0,0,.185.13Z" transform="translate(1.317 2.072) rotate(-120)" fill="#634000"/>
      <path id="Path_8682" data-name="Path 8682" d="M.852.482.745.663C.733.654,0,.357,0,.357L.046.14.2,0Z" transform="translate(1.709 2.237) rotate(-120)" fill="#634000"/>
      <path id="Path_8683" data-name="Path 8683" d="M.77.37.641.606C.631.6,0,.274,0,.274L.04.11.154,0Z" transform="translate(1.733 2.155) rotate(-120)" fill="#d8a12a"/>
      <path id="Path_8684" data-name="Path 8684" d="M.275.3A.482.482,0,0,1,.168.36L0,.274.04.11.154,0,.4.15A.453.453,0,0,1,.275.3Z" transform="translate(1.733 2.155) rotate(-120)" fill="#e9be4a"/>
      <path id="Path_8685" data-name="Path 8685" d="M.77.369.226.074.13.161.1.3l.539.31C.631.6,0,.274,0,.274L.04.11.154,0Z" transform="translate(1.733 2.169) rotate(-120)" fill="#b27911"/>
      <g id="Group_4143" data-name="Group 4143" transform="translate(1.44 1.977) rotate(-120)">
        <path id="Path_8686" data-name="Path 8686" d="M.277,1.074h0C.221,1.039.131.971.176.891A.187.187,0,0,1,.416.826l0-.008C.367.779.283.7.328.621A.166.166,0,0,1,.559.571l0,0C.508.528.424.449.472.364A.167.167,0,0,1,.7.3.333.333,0,0,1,.672,0l0,0A.937.937,0,0,1,.937.566a.533.533,0,0,1-.05.123l-.18.32a.542.542,0,0,1-.1.126A.9.9,0,0,1,0,1.2l0-.008A.329.329,0,0,1,.277,1.074Z" transform="translate(0 0)" fill="#634000"/>
      </g>
      <g id="Group_4144" data-name="Group 4144" transform="translate(1.62 2.867) rotate(-120)">
        <path id="Path_8687" data-name="Path 8687" d="M.264.079A.171.171,0,0,0,.252.214a.193.193,0,0,1,0,.153h0A.22.22,0,0,1,.1.457h0A.135.135,0,0,0,0,.593.145.145,0,0,0,.118.732.342.342,0,0,0,.368.683.513.513,0,0,0,.551.49.427.427,0,0,0,.606.263a.327.327,0,0,0-.1-.218A.152.152,0,0,0,.319.022.154.154,0,0,0,.264.079ZM.294.393h0A.243.243,0,0,0,.3.2.109.109,0,0,1,.346.066.1.1,0,0,1,.469.081.307.307,0,0,1,.506.465L.5.471A.375.375,0,0,1,.129.681.093.093,0,0,1,.052.592.084.084,0,0,1,.118.507h0A.266.266,0,0,0,.294.393Z" transform="translate(0 0)" fill="#e9bf4d"/>
      </g>
      <path id="Path_8688" data-name="Path 8688" d="M0,.58A.1.1,0,0,1,.06.465.324.324,0,0,0,.248.13.114.114,0,0,1,.311.011.1.1,0,0,1,.428.028a.316.316,0,0,1,.04.406.361.361,0,0,1-.416.2A.079.079,0,0,1,0,.58Z" transform="translate(1.637 2.81) rotate(-120)" fill="#b27911"/>
      <path id="Path_8689" data-name="Path 8689" d="M.4.4a.3.3,0,0,1-.37.164C-.028.534.015.473.039.462A.36.36,0,0,0,.252.082C.246.044.278-.025.338.009A.285.285,0,0,1,.4.4Z" transform="translate(1.656 2.763) rotate(-120)" fill="#633800"/>
      <path id="Path_8690" data-name="Path 8690" d="M.092.183a.194.194,0,0,0,0,.185A.189.189,0,0,1,.015.135.3.3,0,0,1,.372.016l.008,0A.307.307,0,0,0,.092.183Z" transform="translate(2.181 1.971) rotate(-120)" fill="#b27911"/>
      <path id="Path_8691" data-name="Path 8691" d="M.119.111A.3.3,0,0,0,.18.472h0A.339.339,0,0,1,.125.434a.3.3,0,0,1-.1-.36A.187.187,0,0,1,.277.025.177.177,0,0,0,.119.111Z" transform="translate(1.3 1.961) rotate(-120)" fill="#b27911"/>
      <path id="Path_8692" data-name="Path 8692" d="M.856.1A.549.549,0,0,1,.912.72l-.18.32a.577.577,0,0,1-.58.28C.045,1.3-.021,1.258.006,1.21.058,1.117.2,1.1.287,1.1h0C.228,1.06.133.99.178.909A.193.193,0,0,1,.426.848l0-.008C.374.8.285.72.33.639A.171.171,0,0,1,.569.594l0,0C.515.549.427.467.475.382A.172.172,0,0,1,.712.326.334.334,0,0,1,.674.021C.7-.03.783.017.856.1Z" transform="translate(1.425 1.925) rotate(-120)" fill="#b27911"/>
      <path id="Path_8693" data-name="Path 8693" d="M.222.276C.18.274.1.168,0,0c.171,0,.342,0,.37.069S.27.279.222.276Z" transform="translate(1.824 2.801) rotate(-120)" fill="#d8a12a"/>
      <path id="Path_8694" data-name="Path 8694" d="M.37.069v0C.28.029.185.038.153.095s0,.128.075.182H.222C.18.274.1.168,0,0,.171,0,.342.005.37.069Z" transform="translate(1.824 2.801) rotate(-120)" fill="#b27911"/>
      <ellipse id="Ellipse_1189" data-name="Ellipse 1189" cx="0.266" cy="0.264" rx="0.266" ry="0.264" transform="translate(2.23 0.379) rotate(60.684)" fill="#cc9226"/>
      <ellipse id="Ellipse_1190" data-name="Ellipse 1190" cx="0.169" cy="0.168" rx="0.169" ry="0.168" transform="translate(2.2 0.52) rotate(60.684)" fill="#634000"/>
      <ellipse id="Ellipse_1191" data-name="Ellipse 1191" cx="0.266" cy="0.264" rx="0.266" ry="0.264" transform="translate(1.471 0.387) rotate(60.682)" fill="#cc9226"/>
      <ellipse id="Ellipse_1192" data-name="Ellipse 1192" cx="0.204" cy="0.203" rx="0.204" ry="0.203" transform="translate(1.831 0.502) rotate(60.675)" fill="#cc9226"/>
      <ellipse id="Ellipse_1193" data-name="Ellipse 1193" cx="0.126" cy="0.125" rx="0.126" ry="0.125" transform="translate(1.805 0.622) rotate(60.684)" fill="#634000"/>
      <ellipse id="Ellipse_1194" data-name="Ellipse 1194" cx="0.102" cy="0.101" rx="0.102" ry="0.101" transform="translate(1.545 1.017) rotate(60.684)" fill="#e9bf4d"/>
      <ellipse id="Ellipse_1195" data-name="Ellipse 1195" cx="0.102" cy="0.101" rx="0.102" ry="0.101" transform="translate(1.84 1.013) rotate(60.684)" fill="#e9bf4d"/>
      <path id="Path_8695" data-name="Path 8695" d="M.059.174A.093.093,0,0,1,.009.049.1.1,0,0,1,.144.011.093.093,0,0,1,.193.136.1.1,0,0,1,.059.174Z" transform="translate(2.079 1.277) rotate(-120)" fill="#e9bf4d"/>
      <ellipse id="Ellipse_1196" data-name="Ellipse 1196" cx="0.101" cy="0.054" rx="0.101" ry="0.054" transform="matrix(-0.451, 0.893, -0.893, -0.451, 1.258, 1.084)" fill="#e9bf4d"/>
      <path id="Path_8696" data-name="Path 8696" d="M.1.1C.046.1,0,.075,0,.048S.045,0,.1,0,.2.021.2.048.158.1.1.1Z" transform="translate(2.405 1.246) rotate(-120)" fill="#e9bf4d"/>
      <g id="Group_4145" data-name="Group 4145" transform="translate(1.443 1.634) rotate(-120)">
        <path id="Path_8697" data-name="Path 8697" d="M0,1.177C.127,1.128.249.847.381.612A1.95,1.95,0,0,0,.66,0,.528.528,0,0,1,.708.1.268.268,0,0,1,.8.093a2.819,2.819,0,0,0-.38.532,2.859,2.859,0,0,0-.246.565.266.266,0,0,1-.024-.04A.57.57,0,0,1,0,1.177Z" transform="translate(0 0)" fill="#634000"/>
        <ellipse id="Ellipse_1197" data-name="Ellipse 1197" cx="0.169" cy="0.168" rx="0.169" ry="0.168" transform="translate(0.968 0.539) rotate(-179.32)" fill="#634000"/>
      </g>
      <ellipse id="Ellipse_1198" data-name="Ellipse 1198" cx="0.126" cy="0.125" rx="0.126" ry="0.125" transform="translate(1.805 0.603) rotate(60.684)" fill="#e9bf4d"/>
      <ellipse id="Ellipse_1199" data-name="Ellipse 1199" cx="0.169" cy="0.168" rx="0.169" ry="0.168" transform="translate(1.425 0.511) rotate(60.68)" fill="#e9bf4d"/>
      <path id="Path_8698" data-name="Path 8698" d="M.024.086,0,.014.082,0Z" transform="translate(1.794 2.48) rotate(-120)" fill="#e9be4a"/>
      <path id="Path_8699" data-name="Path 8699" d="M0,.132.025,0S.071.042.066.076,0,.132,0,.132Z" transform="translate(1.842 2.11) rotate(-120)" fill="#634000"/>
      <path id="Path_8700" data-name="Path 8700" d="M.1,0,0,.083S.067.1.1.076.1,0,.1,0Z" transform="translate(1.717 2.13) rotate(-120)" fill="#634000"/>
      <path id="Path_8701" data-name="Path 8701" d="M.034.044A.2.2,0,0,0,0,0,.244.244,0,0,1,.1.1C.15.187.144.287.085.321A.091.091,0,0,1,.033.332.289.289,0,0,0,.034.044Z" transform="translate(1.206 1.629) rotate(-120)" fill="#b27911"/>
      <path id="Path_8702" data-name="Path 8702" d="M.055.138A.2.2,0,0,1,0,.13.254.254,0,0,0,.133.166c.1,0,.184-.052.182-.118A.088.088,0,0,0,.3,0,.276.276,0,0,1,.055.138Z" transform="translate(2.318 1.708) rotate(-120)" fill="#b27911"/>
      <ellipse id="Ellipse_1200" data-name="Ellipse 1200" cx="0.08" cy="0.08" rx="0.08" ry="0.08" transform="matrix(0.489, 0.872, -0.872, 0.489, 1.788, 0.665)" fill="#b27911"/>
      <ellipse id="Ellipse_1201" data-name="Ellipse 1201" cx="0.12" cy="0.119" rx="0.12" ry="0.119" transform="translate(1.407 0.578) rotate(60.679)" fill="#b27911"/>
      <ellipse id="Ellipse_1202" data-name="Ellipse 1202" cx="0.169" cy="0.168" rx="0.169" ry="0.168" transform="translate(2.199 0.502) rotate(60.684)" fill="#e9bf4d"/>
      <ellipse id="Ellipse_1203" data-name="Ellipse 1203" cx="0.12" cy="0.119" rx="0.12" ry="0.119" transform="translate(2.181 0.569) rotate(60.684)" fill="#b27911"/>
      <path id="Path_8703" data-name="Path 8703" d="M.064.021A.185.185,0,0,0,.139.268L.155.276A.187.187,0,0,1,.1.255.185.185,0,0,1,.024,0V0Z" transform="translate(1.431 1.01) rotate(-120)" fill="#634000"/>
      <path id="Path_8704" data-name="Path 8704" d="M.038.119A.187.187,0,0,1,.289.053L.3.063A.187.187,0,0,0,0,.1v0Z" transform="translate(2.013 1.029) rotate(-120)" fill="#634000"/>
      <ellipse id="Ellipse_1204" data-name="Ellipse 1204" cx="0.053" cy="0.055" rx="0.053" ry="0.055" transform="translate(1.86 1.097) rotate(93.691)" fill="#b27911"/>
      <path id="Path_8705" data-name="Path 8705" d="M.067.062A.055.055,0,0,0,.062,0L.069,0a.054.054,0,0,1,.02.074A.055.055,0,0,1,.015.1.051.051,0,0,1,0,.087.055.055,0,0,0,.067.062Z" transform="translate(1.779 1.208) rotate(-120)" fill="#634000"/>
      <path id="Path_8706" data-name="Path 8706" d="M.014.055A.029.029,0,0,1,0,.015.029.029,0,0,1,.044,0a.029.029,0,0,1,.011.04A.029.029,0,0,1,.014.055Z" transform="translate(1.791 1.198) rotate(-120)" fill="#d5a932"/>
      <path id="Path_8707" data-name="Path 8707" d="M.03.1A.052.052,0,0,1,.006.031.055.055,0,0,1,.078.005.052.052,0,0,1,.1.076.055.055,0,0,1,.03.1Z" transform="translate(2.097 1.213) rotate(-120)" fill="#b27911"/>
      <path id="Path_8708" data-name="Path 8708" d="M.066.06A.053.053,0,0,0,.057,0L.063,0A.052.052,0,0,1,.088.074.055.055,0,0,1,.016.1.052.052,0,0,1,0,.089.056.056,0,0,0,.066.06Z" transform="translate(2.092 1.199) rotate(-120)" fill="#634000"/>
      <path id="Path_8709" data-name="Path 8709" d="M.016.055A.028.028,0,0,1,0,.017.03.03,0,0,1,.042,0,.028.028,0,0,1,.055.041.03.03,0,0,1,.016.055Z" transform="translate(2.099 1.19) rotate(-120)" fill="#d5a932"/>
      <ellipse id="Ellipse_1205" data-name="Ellipse 1205" cx="0.053" cy="0.049" rx="0.053" ry="0.049" transform="translate(1.56 1.103) rotate(96.874)" fill="#b27911"/>
      <path id="Path_8710" data-name="Path 8710" d="M.063.057A.051.051,0,0,0,.054,0L.06,0A.053.053,0,0,1,.084.072.05.05,0,0,1,.015.09.059.059,0,0,1,0,.078.049.049,0,0,0,.063.057Z" transform="translate(1.483 1.206) rotate(-120)" fill="#634000"/>
      <path id="Path_8711" data-name="Path 8711" d="M.016.051A.029.029,0,0,1,0,.013.027.027,0,0,1,.04,0,.028.028,0,0,1,.053.041.027.027,0,0,1,.016.051Z" transform="translate(1.495 1.2) rotate(-120)" fill="#d5a932"/>
      <path id="Path_8712" data-name="Path 8712" d="M.018.067A.035.035,0,0,1,0,.019.036.036,0,0,1,.053,0,.035.035,0,0,1,.066.053.036.036,0,0,1,.018.067Z" transform="translate(1.642 1.104) rotate(-120)" fill="#634000"/>
      <path id="Path_8713" data-name="Path 8713" d="M.01.037A.02.02,0,0,1,0,.01.02.02,0,0,1,.029,0,.02.02,0,0,1,.037.029.02.02,0,0,1,.01.037Z" transform="translate(1.649 1.09) rotate(-120)" fill="#d5a932"/>
      <path id="Path_8714" data-name="Path 8714" d="M.018.067A.035.035,0,0,1,0,.019.036.036,0,0,1,.053,0,.035.035,0,0,1,.066.053.036.036,0,0,1,.018.067Z" transform="translate(1.934 1.1) rotate(-120)" fill="#634000"/>
      <ellipse id="Ellipse_1206" data-name="Ellipse 1206" cx="0.019" cy="0.02" rx="0.019" ry="0.02" transform="translate(1.968 1.041) rotate(93.693)" fill="#d5a932"/>
      <ellipse id="Ellipse_1207" data-name="Ellipse 1207" cx="0.035" cy="0.027" rx="0.035" ry="0.027" transform="matrix(-0.62, 0.785, -0.785, -0.62, 1.386, 1.051)" fill="#634000"/>
      <path id="Path_8715" data-name="Path 8715" d="M.005.031A.022.022,0,0,1,0,0a.014.014,0,0,1,.022,0,.022.022,0,0,1,0,.026A.014.014,0,0,1,.005.031Z" transform="translate(1.341 1.089) rotate(-120)" fill="#d5a932"/>
      <path id="Path_8716" data-name="Path 8716" d="M.067.043C.03.043,0,.033,0,.022S.03,0,.067,0,.134.009.134.021.1.042.067.043Z" transform="translate(2.426 1.195) rotate(-120)" fill="#634000"/>
      <path id="Path_8717" data-name="Path 8717" d="M.037.023C.016.023,0,.018,0,.012S.016,0,.037,0,.073.005.073.012.057.023.037.023Z" transform="translate(2.415 1.17) rotate(-120)" fill="#d5a932"/>
      <path id="Path_8718" data-name="Path 8718" d="M.024,0A.04.04,0,0,1,.069.019C.075.034.065.049.047.053A.04.04,0,0,1,0,.034C0,.02.005.005.024,0Z" transform="translate(2.239 1.092) rotate(-120)" fill="#634000"/>
      <path id="Path_8719" data-name="Path 8719" d="M.013,0a.022.022,0,0,1,.025.01c0,.008,0,.016-.012.018A.022.022,0,0,1,0,.019C0,.011,0,0,.013,0Z" transform="translate(2.234 1.076) rotate(-120)" fill="#d5a932"/>
      <path id="Path_8720" data-name="Path 8720" d="M.049.034C.067.06.074.088.066.1S.038.091.02.065,0,.011,0,0,.032.008.049.034Z" transform="translate(1.125 1.198) rotate(-120)" fill="#634000"/>
      <path id="Path_8721" data-name="Path 8721" d="M.023.016C.032.028.035.042.031.046S.018.043.01.031,0,.005,0,0,.015,0,.023.016Z" transform="translate(1.139 1.171) rotate(-120)" fill="#d5a932"/>
      <ellipse id="Ellipse_1208" data-name="Ellipse 1208" cx="0.043" cy="0.043" rx="0.043" ry="0.043" transform="translate(1.774 0.727) rotate(60.684)" fill="#634000"/>
      <ellipse id="Ellipse_1209" data-name="Ellipse 1209" cx="0.071" cy="0.07" rx="0.071" ry="0.07" transform="translate(1.388 0.657) rotate(60.706)" fill="#634000"/>
      <ellipse id="Ellipse_1210" data-name="Ellipse 1210" cx="0.071" cy="0.07" rx="0.071" ry="0.07" transform="translate(2.162 0.648) rotate(60.706)" fill="#634000"/>
      <ellipse id="Ellipse_1211" data-name="Ellipse 1211" cx="0.043" cy="0.043" rx="0.043" ry="0.043" transform="translate(1.774 0.714) rotate(60.684)" fill="#e9bf4d"/>
      <ellipse id="Ellipse_1212" data-name="Ellipse 1212" cx="0.071" cy="0.07" rx="0.071" ry="0.07" transform="translate(1.388 0.644) rotate(60.706)" fill="#e9bf4d"/>
      <ellipse id="Ellipse_1213" data-name="Ellipse 1213" cx="0.071" cy="0.07" rx="0.071" ry="0.07" transform="translate(2.162 0.635) rotate(60.706)" fill="#e9bf4d"/>
    </g>
    <g id="Group_10336" data-name="Group 10336" transform="matrix(0.883, 0.469, -0.469, 0.883, 4876.844, -6280.672)">
      <path id="Path_8666-2" data-name="Path 8666" d="M1.017,2.482H.991l-.017,0L.95,2.472h0a.212.212,0,0,1-.116-.1.223.223,0,0,1,0-.216,2.028,2.028,0,0,1-.7-.357A1.943,1.943,0,0,1,.194,1,.211.211,0,0,1,.027.891a.222.222,0,0,1,0-.218h0L.043.653l0,0A.214.214,0,0,1,.07.624L.077.617A.21.21,0,0,1,.108.595L.132.583h0L.622.3A.137.137,0,0,1,.8.359L.849.329a.25.25,0,0,1,.3.038L1.184.359h.005L1.252.348S1.245.34,1.243.336c-.028-.051.04-.1.148-.115l.02,0A.214.214,0,0,1,1.517.027.2.2,0,0,1,1.794.1a.266.266,0,0,1,.329.124.282.282,0,0,1,.033.151.133.133,0,0,1,.109.07.14.14,0,0,1-.008.146.139.139,0,0,1,.125.073.148.148,0,0,1,0,.142A.271.271,0,0,1,2.5.923a.282.282,0,0,1-.076.358.215.215,0,0,1-.1.237A.2.2,0,0,1,2.1,1.5c-.073.088-.152.135-.18.083a.168.168,0,0,1-.009-.022l-.041.051,0,.006h0l-.02.023a.266.266,0,0,1-.121.3l-.053.03a.145.145,0,0,1-.042.184l-.492.283h0l-.022.015a.208.208,0,0,1-.041.018l-.014,0-.029.006Z" transform="translate(3.417 1.241) rotate(120)" fill="#634000" opacity="0.57"/>
      <path id="Path_8667-2" data-name="Path 8667" d="M0,.406.2.44.293.39a.25.25,0,0,0,.1-.341L.363,0Z" transform="translate(1.391 1.709) rotate(120)" fill="#634000"/>
      <path id="Path_8668-2" data-name="Path 8668" d="M0,.272.078.082l.09-.05a.253.253,0,0,1,.343.1L.538.178Z" transform="translate(2.781 1.659) rotate(120)" fill="#634000"/>
      <ellipse id="Ellipse_1177-2" data-name="Ellipse 1177" cx="0.204" cy="0.203" rx="0.204" ry="0.203" transform="translate(0.888 2.564) rotate(-60.681)" fill="#634000"/>
      <ellipse id="Ellipse_1178-2" data-name="Ellipse 1178" cx="0.139" cy="0.138" rx="0.139" ry="0.138" transform="translate(1.449 2.852) rotate(-60.672)" fill="#634000"/>
      <ellipse id="Ellipse_1179-2" data-name="Ellipse 1179" cx="0.204" cy="0.203" rx="0.204" ry="0.203" transform="translate(2.109 2.578) rotate(-60.675)" fill="#634000"/>
      <ellipse id="Ellipse_1180-2" data-name="Ellipse 1180" cx="0.132" cy="0.131" rx="0.132" ry="0.131" transform="matrix(0.49, -0.872, 0.872, 0.49, 1.697, 2.861)" fill="#634000"/>
      <path id="Path_8669-2" data-name="Path 8669" d="M.817.462A.141.141,0,0,0,.85.268L.7,0l-.4.374A.209.209,0,0,0,.107.382a.207.207,0,0,0-.08.282A.209.209,0,0,0,.31.744L.332.73h0Z" transform="translate(1.585 1.109) rotate(120)" fill="#b27911"/>
      <path id="Path_8670-2" data-name="Path 8670" d="M.678.271A.141.141,0,0,0,.71.077L.667,0a1.121,1.121,0,0,1-.35.4A1.264,1.264,0,0,1,0,.567.209.209,0,0,0,.171.553L.192.539h0Z" transform="translate(1.349 1.134) rotate(120)" fill="#e9bf4d"/>
      <path id="Path_8671-2" data-name="Path 8671" d="M.415.5.948.355.8.087A.142.142,0,0,0,.614.013L.129.282h0L.107.294a.207.207,0,0,0-.08.282A.209.209,0,0,0,.31.656.207.207,0,0,0,.415.5Z" transform="translate(3.124 1.084) rotate(120)" fill="#b27911"/>
      <path id="Path_8672-2" data-name="Path 8672" d="M0,.369.086.333A2.659,2.659,0,0,1,.8.15L.768.087A.142.142,0,0,0,.585.013L.1.282h0L.077.294A.206.206,0,0,0,0,.369Z" transform="translate(3.11 1.109) rotate(120)" fill="#e9bf4d"/>
      <ellipse id="Ellipse_1181-2" data-name="Ellipse 1181" cx="0.147" cy="0.147" rx="0.147" ry="0.147" transform="matrix(0.489, -0.872, 0.872, 0.489, 2.406, 1.08)" fill="#634000"/>
      <ellipse id="Ellipse_2570-2" data-name="Ellipse 2570" cx="0.147" cy="0.147" rx="0.147" ry="0.147" transform="matrix(0.489, -0.872, 0.872, 0.489, 0.798, 1.08)" fill="#634000"/>
      <ellipse id="Ellipse_1184-2" data-name="Ellipse 1184" cx="0.066" cy="0.066" rx="0.066" ry="0.066" transform="matrix(0.49, -0.872, 0.872, 0.49, 0.811, 1.569)" fill="#634000"/>
      <ellipse id="Ellipse_1186-2" data-name="Ellipse 1186" cx="0.066" cy="0.062" rx="0.066" ry="0.062" transform="translate(2.611 1.63) rotate(-87.046)" fill="#634000"/>
      <ellipse id="Ellipse_1187-2" data-name="Ellipse 1187" cx="0.047" cy="0.044" rx="0.047" ry="0.044" transform="matrix(0.052, -0.999, 0.999, 0.052, 2.664, 1.445)" fill="#634000"/>
      <ellipse id="Ellipse_2572-2" data-name="Ellipse 2572" cx="0.047" cy="0.044" rx="0.047" ry="0.044" transform="matrix(0.052, -0.999, 0.999, 0.052, 0.823, 1.42)" fill="#634000"/>
      <ellipse id="Ellipse_1188-2" data-name="Ellipse 1188" cx="0.094" cy="0.093" rx="0.094" ry="0.093" transform="translate(2.474 1.061) rotate(-60.682)" fill="#e9bf4d"/>
      <ellipse id="Ellipse_2571-2" data-name="Ellipse 2571" cx="0.094" cy="0.093" rx="0.094" ry="0.093" transform="translate(0.866 1.061) rotate(-60.682)" fill="#e9bf4d"/>
      <path id="Path_8673-2" data-name="Path 8673" d="M.017,1.394S-.113.549.343.3C.913-.021,1.61-.188,1.909.343s-.3,1.086-.781,1.35C.7,1.929.017,1.394.017,1.394Z" transform="translate(3.026 1.161) rotate(120)" fill="#634000"/>
      <path id="Path_8674-2" data-name="Path 8674" d="M.013,1.362S-.1.551.351.3C.916-.014,1.6-.186,1.888.32S1.571,1.37,1.1,1.632C.678,1.866.013,1.362.013,1.362Z" transform="translate(2.995 1.167) rotate(120)" fill="#b27911"/>
      <path id="Path_8675-2" data-name="Path 8675" d="M.02,1.238S-.111.5.3.272C.817-.015,1.446-.17,1.71.3s-.284.968-.715,1.207C.611,1.72.02,1.238.02,1.238Z" transform="translate(2.891 1.151) rotate(120)" fill="#cc9226"/>
      <path id="Path_8676-2" data-name="Path 8676" d="M.044.963S-.086.233.319,0L.3.01C-.111.239.02.976.02.976s.591.482.975.268l.017-.01C.628,1.439.044.963.044.963Z" transform="translate(2.664 1.021) rotate(120)" fill="#634000"/>
      <path id="Path_8677-2" data-name="Path 8677" d="M.748,1.438c.405-.258.84-.71.6-1.138C1.095-.152.5-.026,0,.239.4.434.047.893.748,1.438Z" transform="translate(2.71 1.465) rotate(120)" fill="#e9bf4d"/>
      <path id="Path_8678-2" data-name="Path 8678" d="M.271.681A.174.174,0,0,1,.26.541a.2.2,0,0,0,0-.158h0A.225.225,0,0,0,.107.291h0A.137.137,0,0,1,0,.151.153.153,0,0,1,.125.007a.357.357,0,0,1,.26.048.519.519,0,0,1,.189.2A.432.432,0,0,1,.63.488.343.343,0,0,1,.523.714.16.16,0,0,1,.328.739.157.157,0,0,1,.271.681Z" transform="translate(2.275 0.887) rotate(120)" fill="#634000"/>
      <path id="Path_8679-2" data-name="Path 8679" d="M.2,0C.157,0,.086.119,0,.313.184.339.367.353.388.277S.253,0,.2,0Z" transform="translate(2.095 0.757) rotate(120)" fill="#634000"/>
      <path id="Path_8680-2" data-name="Path 8680" d="M.156.185A.194.194,0,0,1,.159,0C.076.059-.03.19.008.273.058.382.289.4.436.351l.008,0A.307.307,0,0,1,.156.185Z" transform="translate(2.532 1.549) rotate(120)" fill="#634000"/>
      <path id="Path_8681-2" data-name="Path 8681" d="M.185.361A.3.3,0,0,1,.245,0h0A.34.34,0,0,0,.19.038c-.118.1-.236.306-.173.4.05.078.23.05.326,0A.177.177,0,0,1,.185.361Z" transform="translate(1.742 1.609) rotate(120)" fill="#634000"/>
      <path id="Path_8682-2" data-name="Path 8682" d="M.852.182.745,0C.733.009,0,.306,0,.306L.046.523.2.663Z" transform="translate(2.283 1.531) rotate(120)" fill="#634000"/>
      <path id="Path_8683-2" data-name="Path 8683" d="M.77.237.641,0C.631.008,0,.333,0,.333L.04.5l.114.11Z" transform="translate(2.258 1.584) rotate(120)" fill="#d8a12a"/>
      <path id="Path_8684-2" data-name="Path 8684" d="M.275.062A.482.482,0,0,0,.168,0L0,.087.04.25.154.36.4.211A.453.453,0,0,0,.275.062Z" transform="translate(2.045 1.461) rotate(120)" fill="#e9be4a"/>
      <path id="Path_8685-2" data-name="Path 8685" d="M.77.237l-.544.3L.13.445.1.31.641,0C.631.008,0,.333,0,.333L.04.5l.113.11Z" transform="translate(2.258 1.57) rotate(120)" fill="#b27911"/>
      <g id="Group_4143-2" data-name="Group 4143" transform="translate(2.5 2.071) rotate(120)">
        <path id="Path_8686-2" data-name="Path 8686" d="M.277.15h0c-.057.033-.147.1-.1.181A.187.187,0,0,0,.416.4l0,.008C.367.445.283.522.328.6a.166.166,0,0,0,.231.05l0,0C.508.7.424.775.472.86A.167.167,0,0,0,.7.92a.333.333,0,0,0-.03.3l0,0A.937.937,0,0,0,.937.657.533.533,0,0,0,.887.534L.708.215A.542.542,0,0,0,.61.089.9.9,0,0,0,0,.023L0,.032A.329.329,0,0,0,.277.15Z" transform="translate(0 0)" fill="#634000"/>
      </g>
      <g id="Group_4144-2" data-name="Group 4144" transform="translate(2.26 0.938) rotate(120)">
        <path id="Path_8687-2" data-name="Path 8687" d="M.264.66A.171.171,0,0,1,.252.525a.193.193,0,0,0,0-.153h0A.22.22,0,0,0,.1.281h0A.135.135,0,0,1,0,.145.145.145,0,0,1,.118.007a.342.342,0,0,1,.25.048A.513.513,0,0,1,.551.249.426.426,0,0,1,.606.476a.327.327,0,0,1-.1.218A.152.152,0,0,1,.319.716.154.154,0,0,1,.264.66ZM.294.346h0A.243.243,0,0,1,.3.54.109.109,0,0,0,.346.672.1.1,0,0,0,.469.657.307.307,0,0,0,.506.273L.5.268A.375.375,0,0,0,.129.057.093.093,0,0,0,.052.146.084.084,0,0,0,.118.231h0A.266.266,0,0,1,.294.346Z" transform="translate(0 0)" fill="#e9bf4d"/>
      </g>
      <path id="Path_8688-2" data-name="Path 8688" d="M0,.072A.1.1,0,0,0,.06.188.324.324,0,0,1,.248.523.114.114,0,0,0,.311.642.1.1,0,0,0,.428.625.316.316,0,0,0,.467.219a.361.361,0,0,0-.416-.2A.079.079,0,0,0,0,.072Z" transform="translate(2.202 0.953) rotate(120)" fill="#b27911"/>
      <path id="Path_8689-2" data-name="Path 8689" d="M.4.187A.3.3,0,0,0,.027.022c-.055.031-.012.092.012.1a.36.36,0,0,1,.213.38C.246.543.278.612.338.578A.285.285,0,0,0,.4.187Z" transform="translate(2.164 0.967) rotate(120)" fill="#633800"/>
      <path id="Path_8690-2" data-name="Path 8690" d="M.092.185A.194.194,0,0,1,.094,0,.188.188,0,0,0,.015.233.3.3,0,0,0,.372.351l.008,0A.307.307,0,0,1,.092.185Z" transform="translate(2.5 1.649) rotate(120)" fill="#b27911"/>
      <path id="Path_8691-2" data-name="Path 8691" d="M.119.361A.3.3,0,0,1,.18,0h0A.339.339,0,0,0,.125.038.3.3,0,0,0,.03.4.187.187,0,0,0,.277.447.177.177,0,0,1,.119.361Z" transform="translate(1.708 1.711) rotate(120)" fill="#b27911"/>
      <path id="Path_8692-2" data-name="Path 8692" d="M.856,1.222A.549.549,0,0,0,.912.606L.732.286a.577.577,0,0,0-.58-.28C.045.023-.021.067.006.116.058.208.2.23.287.229h0C.228.265.133.336.178.416A.193.193,0,0,0,.426.477l0,.008c-.056.04-.145.121-.1.2A.171.171,0,0,0,.569.732l0,0C.515.776.427.858.475.943A.172.172,0,0,0,.712,1,.334.334,0,0,0,.674,1.3C.7,1.355.783,1.309.856,1.222Z" transform="translate(2.573 2.174) rotate(120)" fill="#b27911"/>
      <path id="Path_8693-2" data-name="Path 8693" d="M.222,0C.18,0,.1.109,0,.276c.171,0,.342,0,.37-.069S.27,0,.222,0Z" transform="translate(2.063 0.773) rotate(120)" fill="#d8a12a"/>
      <path id="Path_8694-2" data-name="Path 8694" d="M.37.207v0C.28.248.185.239.153.182S.157.054.228,0H.222C.18,0,.1.109,0,.276.171.278.342.271.37.207Z" transform="translate(2.063 0.773) rotate(120)" fill="#b27911"/>
      <ellipse id="Ellipse_1189-2" data-name="Ellipse 1189" cx="0.266" cy="0.264" rx="0.266" ry="0.264" transform="matrix(0.49, -0.872, 0.872, 0.49, 1.769, 2.799)" fill="#cc9226"/>
      <ellipse id="Ellipse_1190-2" data-name="Ellipse 1190" cx="0.169" cy="0.168" rx="0.169" ry="0.168" transform="matrix(0.49, -0.872, 0.872, 0.49, 1.907, 2.752)" fill="#634000"/>
      <ellipse id="Ellipse_1191-2" data-name="Ellipse 1191" cx="0.266" cy="0.264" rx="0.266" ry="0.264" transform="translate(1.009 2.79) rotate(-60.682)" fill="#cc9226"/>
      <ellipse id="Ellipse_1192-2" data-name="Ellipse 1192" cx="0.204" cy="0.203" rx="0.204" ry="0.203" transform="translate(1.477 2.736) rotate(-60.675)" fill="#cc9226"/>
      <ellipse id="Ellipse_1193-2" data-name="Ellipse 1193" cx="0.126" cy="0.125" rx="0.126" ry="0.125" transform="matrix(0.49, -0.872, 0.872, 0.49, 1.587, 2.691)" fill="#634000"/>
      <ellipse id="Ellipse_1194-2" data-name="Ellipse 1194" cx="0.102" cy="0.101" rx="0.102" ry="0.101" transform="matrix(0.49, -0.872, 0.872, 0.49, 1.369, 2.32)" fill="#e9bf4d"/>
      <ellipse id="Ellipse_1195-2" data-name="Ellipse 1195" cx="0.102" cy="0.101" rx="0.102" ry="0.101" transform="matrix(0.49, -0.872, 0.872, 0.49, 1.664, 2.324)" fill="#e9bf4d"/>
      <path id="Path_8695-2" data-name="Path 8695" d="M.059.011A.093.093,0,0,0,.009.136.1.1,0,0,0,.144.174.093.093,0,0,0,.193.049.1.1,0,0,0,.059.011Z" transform="translate(2.239 2.252) rotate(120)" fill="#e9bf4d"/>
      <ellipse id="Ellipse_1196-2" data-name="Ellipse 1196" cx="0.101" cy="0.054" rx="0.101" ry="0.054" transform="translate(1.163 2.4) rotate(-116.789)" fill="#e9bf4d"/>
      <path id="Path_8696-2" data-name="Path 8696" d="M.1,0C.046,0,0,.021,0,.048S.045.1.1.1.2.075.2.048.158,0,.1,0Z" transform="translate(2.488 2.238) rotate(120)" fill="#e9bf4d"/>
      <g id="Group_4145-2" data-name="Group 4145" transform="translate(2.474 2.398) rotate(120)">
        <path id="Path_8697-2" data-name="Path 8697" d="M0,.014C.127.062.249.343.381.579a1.95,1.95,0,0,1,.279.612.527.527,0,0,0,.047-.1A.268.268,0,0,0,.8,1.1,2.818,2.818,0,0,1,.422.565,2.858,2.858,0,0,1,.176,0,.265.265,0,0,0,.152.04.57.57,0,0,0,0,.014Z" transform="translate(0 0)" fill="#634000"/>
        <ellipse id="Ellipse_1197-2" data-name="Ellipse 1197" cx="0.169" cy="0.168" rx="0.169" ry="0.168" transform="translate(0.972 0.988) rotate(179.32)" fill="#634000"/>
      </g>
      <ellipse id="Ellipse_1198-2" data-name="Ellipse 1198" cx="0.126" cy="0.125" rx="0.126" ry="0.125" transform="matrix(0.49, -0.872, 0.872, 0.49, 1.587, 2.711)" fill="#e9bf4d"/>
      <ellipse id="Ellipse_1199-2" data-name="Ellipse 1199" cx="0.169" cy="0.168" rx="0.169" ry="0.168" transform="translate(1.132 2.761) rotate(-60.68)" fill="#e9bf4d"/>
      <path id="Path_8698-2" data-name="Path 8698" d="M.024,0,0,.072.082.086Z" transform="translate(1.869 0.999) rotate(120)" fill="#e9be4a"/>
      <path id="Path_8699-2" data-name="Path 8699" d="M0,0,.025.132S.071.09.066.056,0,0,0,0Z" transform="translate(1.956 1.392) rotate(120)" fill="#634000"/>
      <path id="Path_8700-2" data-name="Path 8700" d="M.1.088,0,.006S.067-.011.1.013.1.088.1.088Z" transform="translate(1.794 1.35) rotate(120)" fill="#634000"/>
      <path id="Path_8701-2" data-name="Path 8701" d="M.034.288A.2.2,0,0,1,0,.332a.244.244,0,0,0,.1-.1C.15.145.144.045.085.011A.09.09,0,0,0,.033,0,.289.289,0,0,1,.034.288Z" transform="translate(1.493 1.973) rotate(120)" fill="#b27911"/>
      <path id="Path_8702-2" data-name="Path 8702" d="M.055.029A.2.2,0,0,0,0,.036.254.254,0,0,1,.133,0c.1,0,.184.052.182.118A.088.088,0,0,1,.3.166.276.276,0,0,0,.055.029Z" transform="translate(2.462 1.812) rotate(120)" fill="#b27911"/>
      <ellipse id="Ellipse_1200-2" data-name="Ellipse 1200" cx="0.08" cy="0.08" rx="0.08" ry="0.08" transform="translate(1.649 2.694) rotate(-60.706)" fill="#b27911"/>
      <ellipse id="Ellipse_1201-2" data-name="Ellipse 1201" cx="0.12" cy="0.119" rx="0.12" ry="0.119" transform="translate(1.199 2.742) rotate(-60.679)" fill="#b27911"/>
      <ellipse id="Ellipse_1202-2" data-name="Ellipse 1202" cx="0.169" cy="0.168" rx="0.169" ry="0.168" transform="matrix(0.49, -0.872, 0.872, 0.49, 1.906, 2.77)" fill="#e9bf4d"/>
      <ellipse id="Ellipse_1203-2" data-name="Ellipse 1203" cx="0.12" cy="0.119" rx="0.12" ry="0.119" transform="matrix(0.49, -0.872, 0.872, 0.49, 1.974, 2.751)" fill="#b27911"/>
      <path id="Path_8703-2" data-name="Path 8703" d="M.064.255A.185.185,0,0,1,.139.008L.155,0A.187.187,0,0,0,.1.021.185.185,0,0,0,.024.273v0Z" transform="translate(1.67 2.564) rotate(120)" fill="#634000"/>
      <path id="Path_8704-2" data-name="Path 8704" d="M.038,0A.187.187,0,0,0,.289.066L.3.056A.187.187,0,0,1,.255.1.187.187,0,0,1,0,.024v0Z" transform="translate(2.116 2.467) rotate(120)" fill="#634000"/>
      <ellipse id="Ellipse_1204-2" data-name="Ellipse 1204" cx="0.053" cy="0.055" rx="0.053" ry="0.055" transform="matrix(-0.064, -0.998, 0.998, -0.064, 1.75, 2.346)" fill="#b27911"/>
      <path id="Path_8705-2" data-name="Path 8705" d="M.067.044a.055.055,0,0,1,0,.062L.069.1A.054.054,0,0,0,.088.029.055.055,0,0,0,.015.007.051.051,0,0,0,0,.019.055.055,0,0,1,.067.044Z" transform="translate(1.87 2.281) rotate(120)" fill="#634000"/>
      <path id="Path_8706-2" data-name="Path 8706" d="M.014,0A.029.029,0,0,0,0,.043a.029.029,0,0,0,.04.012A.029.029,0,0,0,.054.015.029.029,0,0,0,.014,0Z" transform="translate(1.842 2.267) rotate(120)" fill="#d5a932"/>
      <path id="Path_8707-2" data-name="Path 8707" d="M.03,0A.052.052,0,0,0,.006.076.055.055,0,0,0,.078.1.052.052,0,0,0,.1.031.055.055,0,0,0,.03,0Z" transform="translate(2.189 2.276) rotate(120)" fill="#b27911"/>
      <path id="Path_8708-2" data-name="Path 8708" d="M.066.045A.053.053,0,0,1,.057.1L.063.1A.052.052,0,0,0,.088.031.055.055,0,0,0,.016,0,.052.052,0,0,0,0,.016.056.056,0,0,1,.066.045Z" transform="translate(2.182 2.289) rotate(120)" fill="#634000"/>
      <path id="Path_8709-2" data-name="Path 8709" d="M.016,0A.028.028,0,0,0,0,.041.03.03,0,0,0,.042.055.028.028,0,0,0,.055.017.03.03,0,0,0,.016,0Z" transform="translate(2.148 2.275) rotate(120)" fill="#d5a932"/>
      <ellipse id="Ellipse_1205-2" data-name="Ellipse 1205" cx="0.053" cy="0.049" rx="0.053" ry="0.049" transform="translate(1.463 2.345) rotate(-96.874)" fill="#b27911"/>
      <path id="Path_8710-2" data-name="Path 8710" d="M.063.04A.051.051,0,0,1,.054.1l.006,0A.053.053,0,0,0,.084.025.05.05,0,0,0,.015.007.059.059,0,0,0,0,.019.049.049,0,0,1,.063.04Z" transform="translate(1.567 2.279) rotate(120)" fill="#634000"/>
      <path id="Path_8711-2" data-name="Path 8711" d="M.016,0A.029.029,0,0,0,0,.041.027.027,0,0,0,.04.051.028.028,0,0,0,.053.013.027.027,0,0,0,.016,0Z" transform="translate(1.542 2.264) rotate(120)" fill="#d5a932"/>
      <path id="Path_8712-2" data-name="Path 8712" d="M.018,0A.035.035,0,0,0,0,.053.036.036,0,0,0,.053.067.035.035,0,0,0,.066.019.036.036,0,0,0,.018,0Z" transform="translate(1.705 2.368) rotate(120)" fill="#634000"/>
      <path id="Path_8713-2" data-name="Path 8713" d="M.01,0A.02.02,0,0,0,0,.029.02.02,0,0,0,.029.037.02.02,0,0,0,.037.01.02.02,0,0,0,.01,0Z" transform="translate(1.683 2.366) rotate(120)" fill="#d5a932"/>
      <path id="Path_8714-2" data-name="Path 8714" d="M.018,0A.035.035,0,0,0,0,.053.036.036,0,0,0,.053.067.035.035,0,0,0,.066.019.036.036,0,0,0,.018,0Z" transform="translate(1.996 2.372) rotate(120)" fill="#634000"/>
      <ellipse id="Ellipse_1206-2" data-name="Ellipse 1206" cx="0.019" cy="0.02" rx="0.019" ry="0.02" transform="translate(1.928 2.397) rotate(-93.693)" fill="#d5a932"/>
      <ellipse id="Ellipse_1207-2" data-name="Ellipse 1207" cx="0.035" cy="0.027" rx="0.035" ry="0.027" transform="translate(1.343 2.419) rotate(-128.309)" fill="#634000"/>
      <path id="Path_8715-2" data-name="Path 8715" d="M.005.007A.022.022,0,0,0,0,.034a.014.014,0,0,0,.022,0A.022.022,0,0,0,.027,0,.014.014,0,0,0,.005.007Z" transform="translate(1.373 2.366) rotate(120)" fill="#d5a932"/>
      <path id="Path_8716-2" data-name="Path 8716" d="M.067,0C.03,0,0,.009,0,.021S.03.042.067.043.134.033.134.022.1,0,.067,0Z" transform="translate(2.463 2.262) rotate(120)" fill="#634000"/>
      <path id="Path_8717-2" data-name="Path 8717" d="M.037,0C.016,0,0,.005,0,.012S.016.023.037.023.073.018.073.012.057,0,.037,0Z" transform="translate(2.436 2.278) rotate(120)" fill="#d5a932"/>
      <path id="Path_8718-2" data-name="Path 8718" d="M.024.053A.04.04,0,0,0,.069.035C.075.02.065.005.047,0A.04.04,0,0,0,0,.019C0,.034.005.049.024.053Z" transform="translate(2.285 2.371) rotate(120)" fill="#634000"/>
      <path id="Path_8719-2" data-name="Path 8719" d="M.013.029A.022.022,0,0,0,.038.019C.041.011.036,0,.026,0A.022.022,0,0,0,0,.011C0,.019,0,.027.013.029Z" transform="translate(2.26 2.375) rotate(120)" fill="#d5a932"/>
      <path id="Path_8720-2" data-name="Path 8720" d="M.049.065C.067.039.074.011.066,0S.038.008.02.034,0,.088,0,.1.032.091.049.065Z" transform="translate(1.21 2.288) rotate(120)" fill="#634000"/>
      <path id="Path_8721-2" data-name="Path 8721" d="M.023.031C.032.018.035.005.031,0S.018,0,.01.016,0,.042,0,.046.015.043.023.031Z" transform="translate(1.18 2.289) rotate(120)" fill="#d5a932"/>
      <ellipse id="Ellipse_1208-2" data-name="Ellipse 1208" cx="0.043" cy="0.043" rx="0.043" ry="0.043" transform="matrix(0.49, -0.872, 0.872, 0.49, 1.699, 2.667)" fill="#634000"/>
      <ellipse id="Ellipse_1209-2" data-name="Ellipse 1209" cx="0.071" cy="0.07" rx="0.071" ry="0.07" transform="translate(1.266 2.711) rotate(-60.706)" fill="#634000"/>
      <ellipse id="Ellipse_1210-2" data-name="Ellipse 1210" cx="0.071" cy="0.07" rx="0.071" ry="0.07" transform="translate(2.04 2.72) rotate(-60.706)" fill="#634000"/>
      <ellipse id="Ellipse_1211-2" data-name="Ellipse 1211" cx="0.043" cy="0.043" rx="0.043" ry="0.043" transform="matrix(0.49, -0.872, 0.872, 0.49, 1.699, 2.679)" fill="#e9bf4d"/>
      <ellipse id="Ellipse_1212-2" data-name="Ellipse 1212" cx="0.071" cy="0.07" rx="0.071" ry="0.07" transform="translate(1.266 2.723) rotate(-60.706)" fill="#e9bf4d"/>
      <ellipse id="Ellipse_1213-2" data-name="Ellipse 1213" cx="0.071" cy="0.07" rx="0.071" ry="0.07" transform="translate(2.04 2.732) rotate(-60.706)" fill="#e9bf4d"/>
    </g>
    <g id="Group_10337" data-name="Group 10337" transform="translate(4876.357 -6280.09) rotate(-30)">
      <path id="Path_8601" data-name="Path 8601" d="M.674.2a1.154,1.154,0,0,1-.1.244C.552.488.524.529.5.572A2.054,2.054,0,0,0,.366.863.239.239,0,0,1,.183.992.7.7,0,0,0,0,1.076C.019,1.066.044,1.017.064,1,.116.956.175.918.231.878A.131.131,0,0,0,.251.861.129.129,0,0,0,.272.825C.365.616.506.441.6.23A.808.808,0,0,0,.685,0C.747.073.691.11.674.2Z" transform="translate(0.03 0)" fill="#e4bb38"/>
      <path id="Path_8602" data-name="Path 8602" d="M.328.863A.552.552,0,0,0,.374.728.552.552,0,0,0,.374.6,2.974,2.974,0,0,0,.294.033.047.047,0,0,0,.277,0,.045.045,0,0,0,.251,0,.55.55,0,0,0,.11.025a.49.49,0,0,0-.066.02C.037.048,0,.077,0,.077H.107A.22.22,0,0,1,.192.089C.248.113.248.165.251.22Q.263.406.274.593a1.268,1.268,0,0,1,0,.223A1.27,1.27,0,0,1,.248.955,1.426,1.426,0,0,0,.217,1.1.913.913,0,0,0,.328.863Z" transform="translate(0.077 1.013)" fill="#e4bb38"/>
      <path id="Path_8603" data-name="Path 8603" d="M.258.854A.545.545,0,0,0,.482.565C.558.379.746.046.766,0A.087.087,0,0,0,.784.075a3.017,3.017,0,0,0-.32.783c-.02.2.045.4.041.6a1.666,1.666,0,0,1-.13.565c-.006.017-.012.034-.018.052l-.081.048c.005-.018.009-.035.015-.053.026-.084.177-.431.137-.443C.43,1.507.41,1.379.4,1.257c0-.03,0-.062,0-.1A.607.607,0,0,0,.368.934,1.334,1.334,0,0,0,0,1.046C.055.943.166.912.258.854Z" transform="translate(0 0.05)" fill="#78450a"/>
    </g>
    <path id="Path_60720" data-name="Path 60720" d="M215.592,288.561a2.613,2.613,0,0,1-1.68.909h-1.981v-3.457a.014.014,0,0,1,.014-.014h1.574a1.162,1.162,0,0,1,1.162,1.162v.409h.33V283.9h-.33v.219a1.162,1.162,0,0,1-1.162,1.162h-1.588V281.82a.014.014,0,0,1,.014-.014h2.11a1.162,1.162,0,0,1,1.162,1.161v.574h.482v-2.636h-7.534v.449a.479.479,0,0,1,.249-.071h.354a.483.483,0,0,1,.483.483v7.749a.483.483,0,0,1-.483.483h-.354a.48.48,0,0,1-.249-.071v.3h7.929l.35-3.17h-.3A4.073,4.073,0,0,1,215.592,288.561Z" transform="translate(4669.633 -6570.996)" fill="url(#linear-gradient-11)"/>
  </g>
</svg>
