<?xml version="1.0" encoding="utf-8"?>
<!-- Generator: Adobe Illustrator 25.1.0, SVG Export Plug-In . SVG Version: 6.00 Build 0)  -->
<svg version="1.1" id="Layer_1" xmlns="http://www.w3.org/2000/svg" xmlns:xlink="http://www.w3.org/1999/xlink" x="0px" y="0px"
	 viewBox="0 0 30 30" style="enable-background:new 0 0 30 30;" xml:space="preserve">
<style type="text/css">
	.st0{fill:#DE2727;}
	.st1{fill:#29B0FF;}
	.st2{fill:#2B8400;}
	.st3{fill:#FFBB00;}
</style>
<g id="Group_2141" transform="translate(-212 -490.468)">
	<path id="Rectangle_57" class="st0" d="M220.097,516.834v-6.296c0-1.579,1.275-2.854,2.854-2.854l0,0
		c1.579,0,2.854,1.275,2.854,2.854v6.296c0,1.579-1.275,2.854-2.854,2.854l0,0C221.372,519.689,220.097,518.413,220.097,516.834z"/>
	<path id="Rectangle_111" class="st1" d="M212,516.834v-12.368c0-1.579,1.275-2.854,2.854-2.854l0,0
		c1.579,0,2.854,1.275,2.854,2.854v12.368c0,1.579-1.275,2.854-2.854,2.854l0,0C213.275,519.689,212,518.413,212,516.834z"/>
	<path id="Rectangle_57-2" class="st2" d="M228.194,516.834V501.49c0-1.579,1.275-2.854,2.854-2.854l0,0
		c1.579,0,2.854,1.275,2.854,2.854v15.344c0,1.579-1.275,2.854-2.854,2.854l0,0C229.47,519.689,228.194,518.413,228.194,516.834z"/>
	<path id="Rectangle_57-3" class="st3" d="M236.291,516.834v-22.733c0-1.579,1.275-2.854,2.854-2.854l0,0
		c1.579,0,2.854,1.275,2.854,2.854v22.733c0,1.579-1.275,2.854-2.854,2.854l0,0C237.567,519.689,236.291,518.413,236.291,516.834z"
		/>
</g>
</svg>
