<svg width="18" height="18" viewBox="0 0 18 18" fill="none" xmlns="http://www.w3.org/2000/svg">
	<path fill-rule="evenodd" clip-rule="evenodd" d="M9 17C13.4183 17 17 13.4183 17 9C17 4.58172 13.4183 1 9 1C4.58172 1 1 4.58172 1 9C1 13.4183 4.58172 17 9 17ZM9 18C13.9706 18 18 13.9706 18 9C18 4.02944 13.9706 0 9 0C4.02944 0 0 4.02944 0 9C0 13.9706 4.02944 18 9 18Z" fill="#A8B8BC"/>
	<path d="M8 8C8 7.44772 8.44772 7 9 7V7C9.55228 7 10 7.44772 10 8V13C10 13.5523 9.55228 14 9 14V14C8.44772 14 8 13.5523 8 13V8Z" fill="#A8B8BC"/>
	<path d="M8 5C8 4.44772 8.44772 4 9 4V4C9.55228 4 10 4.44772 10 5V5C10 5.55228 9.55228 6 9 6V6C8.44772 6 8 5.55228 8 5V5Z" fill="#A8B8BC"/>
</svg>
