<svg width="16" height="18" viewBox="0 0 16 18" fill="none" xmlns="http://www.w3.org/2000/svg">
	<g clip-path="url(#clip0_306_31)">
		<path opacity="0.78" d="M7.62193 18L7.47795 17.94C5.75843 17.1595 4.2438 15.99 3.05364 14.5239C1.86347 13.0578 1.03032 11.3352 0.61992 9.492C0.124173 7.64311 -0.0762933 5.72746 0.0259259 3.81598L0.0499127 3.50397L0.361924 3.492C1.67818 3.46763 2.97581 3.17639 4.17626 2.63599C5.37671 2.09558 6.45502 1.31719 7.34593 0.347961L7.62193 0L7.89794 0.347961C8.41708 0.938727 9.01859 1.45167 9.68395 1.87097C11.2377 2.87418 13.0354 3.43495 14.884 3.49298L15.1969 3.505L15.2209 3.81702C15.3211 5.72844 15.1207 7.64372 14.6269 9.49298C14.2162 11.3361 13.383 13.0586 12.1929 14.5247C11.0027 15.9907 9.48825 17.1602 7.76891 17.941L7.62193 18ZM4.67296 8.84497C4.57899 8.84502 4.4861 8.86537 4.40068 8.90454C4.31526 8.94371 4.23932 9.00078 4.17796 9.07196C4.07666 9.18843 4.02086 9.33764 4.02086 9.492C4.02086 9.64637 4.07666 9.79551 4.17796 9.91199L5.84892 11.58C5.9695 11.7005 6.133 11.7681 6.30345 11.7681C6.4739 11.7681 6.63735 11.7005 6.75792 11.58L11.027 7.328C11.0877 7.26981 11.1361 7.19994 11.1692 7.12262C11.2024 7.0453 11.2197 6.96212 11.22 6.87799C11.2201 6.79261 11.2031 6.70807 11.17 6.62939C11.1368 6.55072 11.0882 6.47949 11.027 6.41998C10.9047 6.29919 10.7398 6.23145 10.5679 6.23145C10.3961 6.23145 10.2312 6.29919 10.1089 6.41998L6.30895 10.213L5.09093 8.99896C4.97472 8.89892 4.8263 8.84423 4.67296 8.84497V8.84497Z" fill="white"/>
	</g>
	<defs>
		<clipPath id="clip0_306_31">
			<rect width="15.243" height="18" fill="white"/>
		</clipPath>
	</defs>
</svg>
