<?xml version="1.0" encoding="utf-8"?>
<!-- Generator: Adobe Illustrator 25.1.0, SVG Export Plug-In . SVG Version: 6.00 Build 0)  -->
<svg version="1.1" id="Layer_1" xmlns="http://www.w3.org/2000/svg" xmlns:xlink="http://www.w3.org/1999/xlink" x="0px" y="0px"
	 viewBox="0 0 30 30" style="enable-background:new 0 0 30 30; fill: rgba(255,255,255,0.55);" xml:space="preserve">
<g>
	<g id="Group_1289" transform="translate(4.152 4.152)">
		<path id="Path_1299" d="M11.709,2.82h-1.133h-0.133h-0.367h-0.033l0,0L9.81,2.854l0.117,0.95c0.55-0.067,1.116-0.083,1.666-0.017
			L11.709,2.82L11.709,2.82z"/>
		<path id="Path_1300" d="M7.577,3.47L7.577,3.47L7.577,3.47L7.577,3.47L7.577,3.47L7.577,3.47L7.577,3.47L7.577,3.47L7.577,3.47
			L7.577,3.47L7.577,3.47L7.577,3.47H7.494l0,0l0,0l0,0l0,0l0,0h-0.05l0,0l0,0l0,0l0,0l0,0l0,0l0,0l0,0l0,0l0,0l0,0l0,0l0,0H7.411
			l0,0l0,0l0,0l0,0l0,0l0,0l0,0l0,0l0,0H7.344l0,0l0,0l0,0H7.327l0,0h-0.05l0,0H7.244l0,0H7.227l0,0H7.194l0,0H7.161H7.144H7.127
			H7.111l0,0l0,0H7.077v0.25H7.044H7.027H7.011l0,0l0,0l0,0l0,0L6.994,3.737l0,0l0,0l0,0l0,0l0,0l0,0l0,0l0,0l0,0L6.977,3.753l0,0
			l0,0l0,0l0,0l0,0L6.944,3.77l0,0l0,0l0,0l0,0l0,0H6.927l0,0l0,0l0,0l0,0l0,0L6.894,3.787l0,0l0,0l0,0L6.861,3.803l0,0l0,0l0,0
			L6.827,3.82l0,0l0,0l0,0L6.761,3.87l0,0l0,0l0,0l0,0l0,0L6.694,3.903l0,0l0,0l0,0L6.578,3.987l0,0L6.544,4.003l0,0l0,0l0,0
			L6.511,4.02l0,0l0,0l0,0l0,0l0,0L6.494,4.037l0,0l0,0l0,0l0,0l0,0l0,0l0,0L6.328,4.17l0,0l0,0l0,0l0,0l0,0H6.311l0,0l0,0l0,0l0,0
			l0,0l0,0l0,0l0,0l0,0l0,0l0,0l0,0l0,0l0,0l0,0l0,0l0,0l0,0l0,0l0,0l0,0l0,0l0,0l0,0l0,0l0,0l0,0l0,0l0,0v0.017l0,0l0,0l0,0l0,0
			l0,0l0,0l0,0L6.278,4.203l0,0l-0.2,0.133l0.583,0.75c0.4-0.3,0.85-0.55,1.3-0.75L7.577,3.47z"/>
		<path id="Path_1301" d="M4.328,6.103L4.328,6.103L4.328,6.103L4.328,6.103L4.328,6.103L4.328,6.103L4.328,6.103L4.328,6.103
			L4.328,6.103L4.328,6.103L4.328,6.103L4.328,6.103L4.328,6.103L4.328,6.103L4.328,6.103L4.328,6.103L4.328,6.103L4.328,6.103
			L4.328,6.103L4.328,6.103L4.328,6.103L4.328,6.103L4.328,6.103L4.328,6.103L4.328,6.103L4.328,6.103L4.328,6.103L4.328,6.103
			L4.328,6.103L4.328,6.103L4.328,6.103L4.328,6.103L4.328,6.103L4.328,6.103L4.328,6.103L4.328,6.103L4.328,6.103L4.328,6.103
			L4.328,6.103L4.328,6.103L4.328,6.103L4.328,6.103L4.328,6.103L4.328,6.103L4.328,6.103L4.328,6.103L4.328,6.103L4.328,6.103
			L4.328,6.103L4.328,6.103L4.328,6.103L4.328,6.103L4.328,6.103L4.328,6.103L4.328,6.103L4.328,6.103L4.328,6.103L4.328,6.103
			L4.328,6.103L4.328,6.103L4.328,6.103L4.328,6.103L4.328,6.103L4.328,6.103L4.328,6.103L4.328,6.103L4.328,6.103L4.328,6.103
			L4.328,6.103L4.328,6.103L4.328,6.103L4.328,6.103L4.328,6.103L4.328,6.103L4.328,6.103L4.328,6.103L4.328,6.103L4.328,6.103
			L4.328,6.103L4.328,6.103L4.328,6.103L4.328,6.103L4.328,6.103v0.283l0,0l0,0l0,0l0,0l0,0l0,0l0,0l0,0l0,0l0,0l0,0l0,0v0.017l0,0
			l0,0l0,0l0,0l0,0l0,0v0.017l0,0v0.017l0,0l0,0L4.311,6.419l0,0l0,0l0,0l0,0l0,0l0,0l0,0l0,0v0.017l0,0l0,0l0,0l0,0l0,0l0,0l0,0
			l0,0l0,0L4.295,6.453l0,0l0,0l0,0l0,0l0,0l0,0l0,0L4.278,6.469l0,0l0,0l0,0l0,0l0,0l0,0l0,0l0,0l0,0v0.017l0,0l0,0l0,0l0,0l0,0
			l0,0l0,0l0,0l0,0L4.261,6.503l0,0l0,0l0,0l0,0l0,0L4.245,6.536l0,0l0,0l0,0l0,0l0,0L4.228,6.569l0,0l0,0l0,0l0,0l0,0l0,0l0,0
			L3.862,6.802l0,0l0,0l0,0l0,0l0,0L3.845,6.836l0,0l0,0l0,0L3.828,6.869l0,0l0,0l0,0l-0.05,0.067l0,0l0,0l0,0l0,0l0,0l-0.05,0.1
			l0,0l0,0l0,0L3.662,7.169l0,0L3.645,7.202l0,0l0,0l0,0L3.628,7.236l0,0l0,0l0,0l0,0l0,0L3.612,7.252l0,0l0,0l0,0l0,0l0,0l0,0l0,0
			v0.017l0,0l0,0l0,0l0,0l0,0l0,0l0,0l0,0l0,0v0.017l0,0l0,0l0,0l0,0l0,0l0,0v0.017l0,0l0,0l0,0v0.017l0,0v0.017l0,0l0,0l0,0l0,0
			l0,0l0,0l0,0l0,0l0,0l0,0l0,0v0.017l0,0l0,0l0,0l0,0l0,0l0,0l0,0L3.595,7.386l0,0c-0.033,0.067-0.067,0.133-0.1,0.2l0.883,0.367
			c0.217-0.517,0.483-1,0.816-1.466l-0.766-0.55L4.328,6.103z"/>
		<path id="Path_1302" d="M2.829,10.002v0.017l0,0v0.017l0,0v0.033l0,0l0,0l0,0l0,0l0,0l0,0l0,0v0.033l0,0l0,0l0,0l0,0l0,0v0.033
			l0,0l0,0l0,0l0,0l0,0l0,0l0,0v0.167l0,0v0.1l0,0l0,0l0,0v0.05l0,0v0.017l0,0l0,0l0,0v0.017l0,0l0,0l0,0l0,0l0,0l0,0l0,0v0.133l0,0
			v0.017l0,0l0,0l0,0l0,0l0,0v0.017l0,0l0,0l0,0l0,0l0,0l0,0l0,0l0,0l0,0v0.033l0,0l0,0l0,0l0,0l0,0v0.033l0,0l0,0l0,0l0,0l0,0
			v0.033l0,0l0,0l0,0l0,0l0,0l0,0l0,0v0.033l0,0l0,0l0,0l0,0l0,0v0.033l0,0l0,0l0,0v0.15l0,0l0,0l0,0v0.083l0,0l0,0l0,0l0,0l0,0
			v0.083l0,0l0,0l0,0c0,0.05,0,0.083,0,0.133l0,0v0.033l0,0l0,0l0,0v0.033l0,0l0,0l0,0l0,0l0,0v0.033l0,0l0,0l0,0l0,0l0,0l0,0l0,0
			v0.017l0,0l0,0l0,0v0.017l0,0l0,0l0,0v0.017l0,0l0,0l0,0v0.017l0,0v0.067l0,0l0,0l0,0l0,0l0,0l0,0l0,0l0,0l0,0l0,0l0,0v0.15l0,0
			l0,0l0,0l0,0l0,0l0,0l0,0v0.033l0,0c0,0.083,0.017,0.15,0.033,0.233l0.95-0.117c-0.067-0.55-0.083-1.116-0.017-1.666L2.829,10.002
			L2.829,10.002z"/>
		<path id="Path_1303" d="M3.478,14.134L3.478,14.134L3.478,14.134v0.033l0,0l0,0l0,0V14.2l0,0l0,0l0,0l0,0l0,0l0,0l0,0l0,0v0.017
			l0,0l0,0l0,0l0,0l0,0l0,0v0.017l0,0v0.017l0,0l0,0l0,0l0,0l0,0l0,0l0,0v0.017l0,0l0,0l0,0l0,0V14.3l0,0v0.017l0,0v0.017l0,0v0.033
			l0,0l0,0l0,0V14.4l0,0v0.133l0,0l0,0l0,0l0,0v0.017l0,0l0,0l0,0v0.017l0,0l0,0v0.017l0,0l0,0l0,0l0,0l0,0l0,0l0,0l0,0l0,0
			L3.495,14.6l0,0l0,0l0,0l0,0l0,0l0,0l0,0l0.017,0.017l0,0l0,0l0,0l0,0l0,0l0,0l0,0l0,0l0,0l0.017,0.017l0,0l0,0l0,0l0,0l0,0l0,0
			l0,0l0,0l0,0l0.017,0.017l0,0l0,0l0,0l0,0l0,0l0.017,0.033l0,0l0,0l0,0l0,0l0,0L3.578,14.7l0,0l0,0l0,0l0,0l0,0l0,0l0,0
			l0.017,0.033l0,0l0,0l0,0l0,0l0,0l0.017,0.033l0,0l0,0l0,0L3.628,14.8l0,0l0,0l0,0l0.05,0.067l0,0l0,0l0,0l0,0l0,0l0.05,0.067l0,0
			l0,0l0,0l0.067,0.117l0,0l0.017,0.033l0,0l0,0l0,0l0.017,0.033l0,0l0,0l0,0l0,0l0,0l0.017,0.033l0,0l0,0l0,0l0,0l0,0l0,0l0,0
			l0.017,0.017l0,0l0,0l0,0l0,0l0,0l0,0l0,0l0,0l0,0v0.017l0,0l0,0l0,0l0,0V15.2l0,0l0,0l0,0l0,0l0,0l0,0l0,0l0,0l0,0l0,0l0,0l0,0
			l0,0l0,0l0,0l0,0l0,0l0,0l0,0l0,0l0,0l0,0l0,0l0,0l0,0l0,0v0.017l0,0l0,0l0,0l0,0l0,0l0,0l0,0l0.017,0.033l0,0
			c0.05,0.067,0.083,0.133,0.133,0.183l0.75-0.583c-0.167-0.35-0.3-0.716-0.4-1.083L3.478,14.134L3.478,14.134z"/>
		<path id="Path_1304" d="M6.111,17.366L6.111,17.366L6.111,17.366L6.111,17.366L6.111,17.366L6.111,17.366L6.111,17.366
			L6.111,17.366L6.111,17.366L6.111,17.366L6.111,17.366L6.111,17.366L6.111,17.366L6.111,17.366L6.111,17.366L6.111,17.366
			L6.111,17.366L6.111,17.366L6.111,17.366L6.111,17.366L6.111,17.366L6.111,17.366L6.111,17.366L6.111,17.366L6.111,17.366
			L6.111,17.366L6.111,17.366L6.111,17.366L6.111,17.366L6.111,17.366L6.111,17.366L6.111,17.366L6.111,17.366L6.111,17.366
			L6.111,17.366L6.111,17.366L6.111,17.366L6.111,17.366L6.111,17.366L6.111,17.366L6.111,17.366L6.111,17.366L6.111,17.366
			L6.111,17.366L6.111,17.366L6.111,17.366L6.111,17.366L6.111,17.366L6.111,17.366L6.111,17.366L6.111,17.366L6.111,17.366
			L6.111,17.366L6.111,17.366L6.111,17.366L6.111,17.366L6.111,17.366L6.111,17.366L6.111,17.366L6.111,17.366L6.111,17.366
			L6.111,17.366L6.111,17.366L6.111,17.366L6.111,17.366L6.111,17.366L6.111,17.366L6.111,17.366L6.111,17.366L6.111,17.366
			L6.111,17.366L6.111,17.366L6.111,17.366L6.111,17.366h0.283l0,0l0,0l0,0l0,0l0,0l0,0l0,0h0.017l0,0l0,0l0,0l0,0l0,0l0,0l0,0l0,0
			l0,0h0.017l0,0l0,0l0,0l0,0h0.017l0,0l0,0l0,0l0,0l0,0l0,0l0,0h0.017l0,0l0,0l0,0l0,0l0,0l0,0l0,0l0,0l0,0l0.017,0.017l0,0l0,0
			l0,0l0,0l0,0l0,0l0,0L6.494,17.4l0,0l0,0l0,0l0,0l0,0l0,0l0,0l0.017,0.017l0,0l0,0l0,0l0,0l0,0l0,0l0,0l0.017,0.017l0,0l0,0l0,0
			l0,0l0,0l0.033,0.017l0,0l0,0l0,0l0,0l0,0l0.017,0.017l0,0l0,0l0,0l0,0l0,0l0,0l0,0l0.033,0.017l0,0l0,0l0,0l0.033,0.017l0,0l0,0
			l0,0l0.033,0.017l0,0l0,0l0,0l0.067,0.033l0,0l0,0l0,0l0,0l0,0l0.067,0.033l0,0l0,0l0,0l0.117,0.067l0,0l0.033,0.017l0,0l0,0l0,0
			l0.033,0.017l0,0l0,0l0,0l0,0l0,0l0.033,0.017l0,0l0,0l0,0l0,0l0,0l0,0l0,0l0.017,0.017l0,0l0,0l0,0l0,0l0,0l0,0l0,0l0,0l0,0
			h0.017h0.367l0,0h0.05l0,0l0,0l0,0l0,0h0.017l0,0l0,0l0,0l0,0l0,0l0,0l0,0l0.033,0.017l0,0l0.217,0.1L8.11,16.95
			c-0.517-0.217-1-0.483-1.466-0.816L6.078,16.9L6.111,17.366z"/>
		<path id="Path_1305" d="M10.01,18.882h1.033h0.083l0,0h0.133l0,0h0.033h0.333h0.033l0,0l0.233-0.033l-0.117-0.95
			c-0.55,0.067-1.116,0.083-1.666,0.017L10.01,18.882L10.01,18.882z"/>
		<path id="Path_1306" d="M14.142,18.233L14.142,18.233h0.033l0,0l0,0l0,0l0,0l0,0l0,0l0,0l0,0l0,0l0,0l0,0l0,0l0,0h0.033l0,0l0,0
			l0,0h0.033l0,0l0,0l0,0h0.033l0,0h0.033l0,0h0.033l0,0h0.017l0,0h0.017l0,0h0.033l0,0l0,0l0,0l0,0l0,0h0.017h0.017l0,0l0,0l0,0
			l0,0l0,0l0,0l0,0l0,0l0,0l0,0h0.017l0,0l0,0l0,0l0,0l0.017-0.017l0,0l0,0l0,0l0,0l0,0l0,0l0,0l0.017-0.017l0,0l0,0l0,0l0,0l0,0
			l0,0l0,0l0,0l0,0h0.017l0,0l0,0l0,0l0,0h0.017l0.017-0.017l0,0l0,0l0,0l0,0l0,0l0.033-0.017l0,0l0,0l0,0l0.017-0.017l0,0l0,0l0,0
			l0,0l0,0l0,0l0,0l0.033-0.017l0,0l0,0l0,0l0,0l0,0l0.033-0.017l0,0l0,0l0,0l0.033-0.017l0,0l0,0l0,0l0.067-0.033l0,0l0,0l0,0l0,0
			l0,0l0.067-0.05l0,0l0,0l0,0l0.117-0.067l0,0l0.033-0.017l0,0l0,0l0,0l0.033-0.017l0,0l0,0l0,0l0,0l0,0l0.033-0.017l0,0l0,0l0,0
			l0,0l0,0l0,0l0,0l0.017-0.017l0,0l0,0l0,0l0,0l0,0h0.017l0,0l0,0l0,0l0,0l0,0l0,0l0,0l0,0l0,0l0,0l0,0l0,0l0,0l0,0l0,0l0,0l0,0
			l0,0l0,0l0,0l0,0l0,0l0,0l0,0l0,0l0,0h0.017l0,0l0,0l0,0l0,0l0,0l0,0l0,0l0.033-0.017l0,0c0.067-0.05,0.133-0.1,0.183-0.133
			l-0.583-0.75c-0.45,0.333-0.933,0.633-1.433,0.85l0.383,0.866L14.142,18.233z"/>
		<path id="Path_1307" d="M17.375,15.6L17.375,15.6L17.375,15.6L17.375,15.6L17.375,15.6L17.375,15.6L17.375,15.6L17.375,15.6
			L17.375,15.6L17.375,15.6L17.375,15.6L17.375,15.6L17.375,15.6L17.375,15.6L17.375,15.6L17.375,15.6L17.375,15.6L17.375,15.6
			L17.375,15.6L17.375,15.6L17.375,15.6L17.375,15.6L17.375,15.6L17.375,15.6L17.375,15.6L17.375,15.6L17.375,15.6L17.375,15.6
			L17.375,15.6L17.375,15.6L17.375,15.6L17.375,15.6L17.375,15.6L17.375,15.6L17.375,15.6L17.375,15.6L17.375,15.6L17.375,15.6
			L17.375,15.6L17.375,15.6L17.375,15.6L17.375,15.6L17.375,15.6L17.375,15.6L17.375,15.6L17.375,15.6L17.375,15.6L17.375,15.6
			L17.375,15.6L17.375,15.6L17.375,15.6L17.375,15.6L17.375,15.6L17.375,15.6L17.375,15.6L17.375,15.6L17.375,15.6L17.375,15.6
			L17.375,15.6L17.375,15.6L17.375,15.6L17.375,15.6L17.375,15.6L17.375,15.6L17.375,15.6L17.375,15.6L17.375,15.6L17.375,15.6
			L17.375,15.6v-0.017l0,0l0,0l0,0l0,0l0,0l0,0l0,0l0,0l0,0l0,0l0,0v-0.017l0,0l0,0l0,0l0,0l0,0l0,0V15.55l0,0l0,0l0,0l0,0l0,0l0,0
			l0,0l0,0l0,0l0,0v-0.017l0,0l0,0v-0.017l0,0l0,0l0,0l0,0l0,0l0,0l0,0l0,0l0,0V15.5l0,0l0,0v-0.017l0,0l0,0l0,0l0,0l0.017-0.017
			l0,0l0,0l0,0l0,0l0,0l0,0l0,0l0.017-0.017l0,0l0,0l0,0l0,0l0,0l0,0l0,0l0,0l0,0l0.017-0.017l0,0l0,0l0,0l0,0l0,0l0,0l0,0l0,0l0,0
			l0.017-0.017l0,0l0,0l0,0l0,0l0,0l0.017-0.033l0,0l0,0l0,0l0,0l0,0l0.017-0.017l0,0l0,0l0,0l0,0l0,0l0,0l0,0l0.017-0.033l0,0l0,0
			l0,0l0,0l0,0l0.017-0.033l0,0l0,0l0,0l0.017-0.033l0,0l0,0l0,0l0.033-0.067l0,0l0,0l0,0l0,0l0,0l0.033-0.067l0,0l0,0l0,0
			l0.067-0.117l0,0l0.017-0.033l0,0l0,0l0,0l0.017-0.033l0,0l0,0l0,0l0,0l0,0l0.017-0.033l0,0l0,0l0,0l0,0l0,0l0,0l0,0l0.017-0.017
			l0,0l0,0l0,0v-0.017l0,0l0,0l0,0v-0.017l0,0l0,0l0,0l0,0l0,0l0,0l0,0l0,0l0,0l0,0l0,0l0,0l0,0v-0.033l0,0l0,0l0,0l0,0l0,0l0,0l0,0
			l0,0l0,0l0,0l0,0v-0.017l0,0l0,0l0,0l0,0l0,0l0,0l0,0l0.017-0.033l0,0c0.033-0.067,0.067-0.15,0.1-0.217L16.958,14.2
			c-0.217,0.517-0.483,1-0.816,1.466l0.766,0.567L17.375,15.6z"/>
		<path id="Path_1308" d="M18.891,11.701L18.891,11.701L18.891,11.701v-0.033l0,0l0,0l0,0l0,0l0,0v-0.033l0,0l0,0l0,0l0,0l0,0l0,0
			l0,0v-0.167l0,0v-0.133l0,0v-0.083l0,0v-0.017l0,0l0,0l0,0l0,0l0,0v-0.017l0,0v-0.017l0,0v-0.017l0,0v-0.017l0,0v-0.033l0,0l0,0
			l0,0l0,0l0,0v-0.033l0,0l0,0l0,0v-0.067l0,0l0,0l0,0v-0.017l0,0l0,0l0,0v-0.017l0,0l0,0l0,0v-0.017l0,0l0,0l0,0l0,0l0,0v-0.033
			l0,0l0,0l0,0l0,0l0,0v-0.083l0,0l0,0l0,0l0,0l0,0l0,0l0,0v-0.033l0,0l0,0l0,0l0,0l0,0v-0.067l0,0l0,0l0,0v0l0,0l0,0l0,0v-0.083
			l0,0l0,0l0,0l0,0l0,0v-0.083l0,0l0,0l0,0c0-0.05,0-0.083,0-0.133l0,0v-0.033l0,0l0,0l0,0v-0.033l0,0l0,0l0,0l0,0l0,0v-0.033l0,0
			l0,0l0,0l0,0l0,0l0,0l0,0v-0.017l0,0v-0.017l0,0v-0.017l0,0v-0.017l0,0v-0.067l0,0v-0.017l0,0l0,0l0,0l0,0l0,0v-0.1l0,0l0,0l0,0
			v-0.017l0,0l0,0l0,0l0,0l0,0l0,0l0,0v-0.033l0,0c0-0.083-0.017-0.15-0.033-0.233l-0.95,0.117c0.067,0.55,0.083,1.116,0.017,1.666
			l0.95,0.1L18.891,11.701z"/>
		<path id="Path_1309" d="M18.241,7.569L18.241,7.569L18.241,7.569L18.241,7.569V7.536l0,0l0,0l0,0l0,0l0,0V7.502l0,0l0,0l0,0l0,0
			l0,0l0,0l0,0l0,0l0,0l0,0v-0.05l0,0l0,0l0,0l0,0l0,0l0,0v-0.05l0,0l0,0l0,0l0,0l0,0l0,0l0,0l0,0l0,0l0,0l0,0l0,0l0,0l0,0V7.336
			l0,0V7.319l0,0v-0.05l0,0V7.236l0,0l0,0l0,0l0,0v-0.05l0,0V7.169l0,0l0,0l0,0l0,0l0,0l0,0l0,0l0,0l0,0l0,0l0,0l0,0l0,0l0,0l0,0
			l0,0V7.152V7.086l0,0l-0.25-0.017l0,0l0,0l0,0l0,0l0,0l0,0l0,0l-0.017-0.017l0,0l0,0l0,0l0,0l0,0l0,0l0,0l0,0V7.036l0,0l0,0l0,0
			l0,0l0,0l0,0l0,0l0,0l0,0l-0.017-0.017l0,0l0,0l0,0l0,0l0,0l-0.067-0.117l0,0l0,0l0,0l0,0l0,0l-0.017-0.017l0,0l0,0l0,0l0,0l0,0
			l0,0l0,0l-0.017-0.033l0,0l0,0l0,0l0,0l0,0l-0.017-0.033l0,0l0,0l0,0l-0.017-0.033l0,0l0,0l0,0l-0.033-0.067l0,0l0,0l0,0l0,0l0,0
			l-0.05-0.067l0,0l0,0l0,0l-0.067-0.117l0,0l-0.017-0.033l0,0l0,0l0,0l-0.017-0.033l0,0l0,0l0,0l0,0l0,0l-0.067-0.117l0,0l0,0l0,0
			l0,0l0,0l0,0l0,0l-0.017-0.017l0,0l0,0l0,0l0,0l0,0l0,0l0,0l0,0V6.319l0,0l0,0l0,0l0,0l0,0l0,0l0,0l0,0l0,0l0,0l0,0l0,0l0,0V6.236
			l0,0l0,0l0,0l0,0l0,0l0,0l0,0l0,0l0,0l0,0l0,0l0,0l0,0l0,0l0,0l0,0l0,0V6.219l0,0l0,0l0,0l0,0l0,0l0,0l0,0l-0.017-0.033l0,0
			c-0.05-0.067-0.1-0.133-0.133-0.183l-0.75,0.583c0.333,0.45,0.633,0.933,0.85,1.433l0.866-0.383L18.241,7.569z"/>
		<path id="Path_1310" d="M15.608,4.32L15.608,4.32L15.608,4.32L15.608,4.32L15.608,4.32L15.608,4.32L15.608,4.32L15.608,4.32
			L15.608,4.32L15.608,4.32L15.608,4.32L15.608,4.32L15.608,4.32L15.608,4.32L15.608,4.32L15.608,4.32L15.608,4.32L15.608,4.32
			L15.608,4.32L15.608,4.32L15.608,4.32L15.608,4.32L15.608,4.32L15.608,4.32L15.608,4.32L15.608,4.32L15.608,4.32L15.608,4.32
			L15.608,4.32L15.608,4.32L15.608,4.32L15.608,4.32L15.608,4.32L15.608,4.32L15.608,4.32L15.608,4.32L15.608,4.32L15.608,4.32
			L15.608,4.32L15.608,4.32L15.608,4.32L15.608,4.32L15.608,4.32L15.608,4.32L15.608,4.32L15.608,4.32L15.608,4.32L15.608,4.32
			L15.608,4.32L15.608,4.32L15.608,4.32L15.608,4.32L15.608,4.32L15.608,4.32L15.608,4.32L15.608,4.32L15.608,4.32L15.608,4.32
			L15.608,4.32L15.608,4.32L15.608,4.32L15.608,4.32L15.608,4.32L15.608,4.32L15.608,4.32L15.608,4.32L15.608,4.32L15.608,4.32
			L15.608,4.32L15.608,4.32L15.608,4.32L15.608,4.32L15.608,4.32h-0.017l0,0l0,0l0,0l0,0l0,0l0,0l0,0l0,0l0,0h-0.017l0,0l0,0l0,0
			l0,0l0,0l0,0h-0.017l0,0l0,0l-0.35-0.267l0,0l0,0l0,0l0,0h-0.017l-0.017-0.017l0,0l0,0l0,0l0,0l0,0L15.158,4.02l0,0l0,0l0,0l0,0
			l0,0l0,0l0,0l-0.017-0.017l0,0l0,0l0,0l0,0l0,0l0,0l0,0l-0.017-0.017l0,0l0,0l0,0l0,0l0,0l0,0l0,0L15.108,3.97l0,0l0,0l0,0l0,0
			l0,0l-0.033-0.017l0,0l0,0l0,0l0,0l0,0l-0.017-0.017l0,0l0,0l0,0l0,0l0,0l0,0l0,0L15.025,3.92l0,0l0,0l0,0l0,0l0,0l-0.017,0.017
			l0,0l0,0l0,0L14.975,3.92l0,0l0,0l0,0l-0.067-0.033l0,0l0,0l0,0l0,0l0,0l-0.067-0.033l0,0l0,0l0,0L14.709,3.77l0,0l-0.033-0.017
			l0,0l0,0l0,0l-0.033-0.017h-0.017L14.609,3.72h-0.017l-0.2-0.15h-0.033h-0.017h-0.017l0,0l0,0l0,0l0,0l0,0h-0.033l0,0l0,0l0,0l0,0
			l0,0l0,0l0,0l0,0l0,0l0,0l0,0l0,0h-0.017l0,0l0,0l0,0l0,0l0,0l-0.033-0.017l0,0L14.025,3.47l-0.367,0.883
			c0.517,0.217,1,0.483,1.466,0.816l0.567-0.766L15.608,4.32z"/>
	</g>
	<path id="Path_1311" d="M29.488,11.118c-0.067-0.217-0.117-0.433-0.2-0.65c-0.05-0.2-0.117-0.383-0.183-0.55
		c-0.183-0.483-0.383-0.95-0.6-1.416c-0.067-0.15-0.133-0.3-0.217-0.433c-0.367-0.716-0.8-1.4-1.283-2.033
		c-0.083-0.117-0.167-0.233-0.25-0.333c-0.15-0.2-0.3-0.383-0.467-0.55c-0.217-0.25-0.45-0.517-0.683-0.75
		c-1.866-1.866-4.182-3.199-6.715-3.882c-0.533-0.133-1.066-0.25-1.6-0.333c-0.2-0.067-0.417-0.083-0.616-0.1
		c-0.233-0.017-0.483-0.05-0.716-0.067c-0.317,0-0.633-0.017-0.95-0.017s-0.633,0.017-0.95,0.033c-0.233,0-0.483,0.033-0.716,0.05
		c-0.217,0.033-0.417,0.05-0.616,0.083c-0.533,0.083-1.083,0.2-1.6,0.333C8.577,1.187,6.261,2.52,4.411,4.386
		c-0.233,0.233-0.483,0.5-0.683,0.75C3.545,5.319,3.395,5.503,3.245,5.703c-0.1,0.1-0.183,0.217-0.25,0.333
		C2.512,6.669,2.079,7.352,1.712,8.069c-0.083,0.133-0.15,0.283-0.217,0.433c-0.233,0.467-0.417,0.933-0.6,1.416
		c-0.067,0.183-0.133,0.367-0.183,0.55c-0.083,0.217-0.133,0.433-0.2,0.65c-0.683,2.549-0.683,5.215,0,7.765
		c0.067,0.217,0.117,0.433,0.2,0.65c0.05,0.2,0.117,0.383,0.183,0.55c0.183,0.483,0.367,0.95,0.6,1.416
		c0.067,0.15,0.133,0.3,0.217,0.433c0.367,0.716,0.8,1.4,1.283,2.033c0.083,0.117,0.167,0.233,0.25,0.333
		c0.15,0.2,0.3,0.383,0.467,0.55c0.217,0.25,0.45,0.517,0.683,0.75c1.866,1.866,4.182,3.199,6.715,3.882
		c0.533,0.133,1.066,0.25,1.6,0.333c0.2,0.05,0.4,0.067,0.616,0.083c0.233,0.017,0.483,0.05,0.716,0.067
		c0.333,0.017,0.65,0.033,0.966,0.033s0.633-0.017,0.95-0.033c0.233-0.017,0.483-0.05,0.716-0.067
		c0.217-0.033,0.417-0.05,0.616-0.083c0.533-0.083,1.083-0.2,1.6-0.333c2.549-0.683,4.865-2.016,6.715-3.882
		c0.233-0.233,0.483-0.5,0.683-0.75c0.167-0.183,0.317-0.367,0.467-0.55c0.1-0.1,0.183-0.217,0.25-0.333
		c0.483-0.65,0.916-1.316,1.283-2.033c0.083-0.133,0.15-0.283,0.217-0.433c0.233-0.467,0.417-0.933,0.6-1.416
		c0.067-0.183,0.133-0.367,0.183-0.55c0.083-0.217,0.133-0.433,0.2-0.65C30.171,16.333,30.171,13.667,29.488,11.118L29.488,11.118z
		 M18.691,1.237c2.416,0.633,4.615,1.916,6.382,3.682L22.19,7.802c-1.25-1.266-2.833-2.166-4.565-2.616L18.691,1.237z M11.326,1.237
		l1.066,3.949c-1.733,0.45-3.299,1.35-4.565,2.616L4.944,4.936C6.711,3.153,8.91,1.887,11.326,1.237z M1.262,18.682
		c-0.666-2.416-0.666-4.965,0-7.381l3.949,1.066c-0.483,1.716-0.483,3.532,0,5.249L1.262,18.682z M11.326,28.746
		c-2.416-0.633-4.615-1.916-6.365-3.682l2.883-2.883c1.25,1.266,2.833,2.166,4.565,2.633L11.326,28.746z M16.841,24.231
		c-0.25,0.05-0.533,0.083-0.816,0.117c-0.05,0-0.083,0.017-0.133,0.017c-0.583,0.067-1.183,0.067-1.766,0
		c-0.05,0-0.083-0.017-0.133-0.017c-0.267-0.033-0.55-0.083-0.816-0.117c-0.217-0.05-0.4-0.083-0.6-0.15
		c-1.6-0.417-3.066-1.25-4.232-2.416c-0.15-0.15-0.3-0.317-0.45-0.483c-0.117-0.133-0.233-0.267-0.35-0.417
		c-0.133-0.183-0.267-0.383-0.4-0.55c-0.3-0.433-0.55-0.916-0.766-1.4c-0.1-0.267-0.217-0.533-0.3-0.816
		c-0.067-0.2-0.117-0.367-0.167-0.567c-0.433-1.583-0.433-3.266,0-4.865c0.05-0.2,0.1-0.383,0.167-0.567
		c0.083-0.267,0.2-0.533,0.3-0.816c0.217-0.483,0.467-0.95,0.766-1.4c0.133-0.183,0.267-0.367,0.4-0.55
		c0.117-0.15,0.233-0.283,0.35-0.417c0.15-0.167,0.3-0.333,0.45-0.483c1.166-1.183,2.633-2.016,4.232-2.433
		c0.2-0.067,0.383-0.1,0.6-0.15c0.267-0.05,0.533-0.1,0.816-0.117c0.05,0,0.083-0.017,0.133-0.017c0.583-0.067,1.183-0.067,1.766,0
		c0.05,0,0.083,0.017,0.133,0.017c0.267,0.033,0.55,0.067,0.816,0.117c0.217,0.05,0.4,0.083,0.6,0.15
		c1.6,0.417,3.066,1.25,4.232,2.433c0.15,0.15,0.3,0.317,0.45,0.483c0.117,0.133,0.233,0.267,0.35,0.417
		c0.133,0.183,0.267,0.367,0.4,0.55c0.3,0.433,0.55,0.916,0.766,1.4c0.1,0.267,0.217,0.533,0.3,0.816
		c0.067,0.2,0.117,0.383,0.167,0.567c0.433,1.583,0.433,3.266,0,4.865c-0.05,0.2-0.1,0.383-0.167,0.567
		c-0.083,0.267-0.2,0.533-0.3,0.816c-0.217,0.483-0.467,0.95-0.766,1.4c-0.133,0.183-0.267,0.367-0.4,0.55
		c-0.117,0.15-0.233,0.283-0.35,0.417c-0.15,0.167-0.3,0.333-0.45,0.483c-1.166,1.166-2.633,2.016-4.232,2.433
		C17.241,24.147,17.041,24.181,16.841,24.231z M18.707,28.746l-1.066-3.949c1.733-0.45,3.299-1.35,4.565-2.633l2.883,2.883
		C23.323,26.83,21.107,28.113,18.707,28.746L18.707,28.746z M24.822,17.616c0.483-1.716,0.483-3.532,0-5.249l3.949-1.066
		c0.666,2.416,0.666,4.965,0,7.381L24.822,17.616z"/>
</g>
</svg>
