<svg width="135" height="135" viewBox="0 0 135 135" fill="none" xmlns="http://www.w3.org/2000/svg">
<circle cx="67.5" cy="67.5" r="61" fill="url(#paint0_linear_33_16)" stroke="#B087ED" stroke-width="13"/>
<path d="M95.8367 25C96.7144 24.8244 97.4167 25 97.9433 25.5267C98.6456 26.0533 98.9967 26.6678 98.9967 27.37L98.9967 80.0367C99.1722 82.8455 98.2945 85.5667 96.3633 88.2C94.6078 90.8333 92.2378 92.8522 89.2533 94.2567C86.62 95.4856 83.9867 96.0122 81.3533 95.8367C78.72 95.6611 76.35 94.9589 74.2433 93.73C72.1367 92.5011 70.6445 90.8333 69.7667 88.7267C68.1867 85.3911 68.2745 81.9678 70.03 78.4567C71.7856 74.77 74.6822 72.0489 78.72 70.2933C81.0022 69.24 83.2845 68.7133 85.5667 68.7133C88.0244 68.7133 90.2189 69.1522 92.15 70.03L91.6233 45.2767C91.6233 44.5744 91.2722 43.96 90.57 43.4333C90.0433 42.9067 89.3411 42.8189 88.4633 43.17L56.8633 52.1233C56.3367 52.1233 55.8978 52.3867 55.5467 52.9133C55.1956 53.2644 55.02 53.7911 55.02 54.4933L55.02 86.0933C55.7222 89.2533 55.1078 92.4133 53.1767 95.5733C51.4211 98.5578 48.7878 100.84 45.2767 102.42C42.8189 103.649 40.2733 104.176 37.64 104C35.0067 103.824 32.6367 103.122 30.53 101.893C28.4233 100.664 26.9311 98.9089 26.0533 96.6267C24.4733 93.2911 24.5611 89.8678 26.3167 86.3567C28.0722 82.8456 30.9689 80.2122 35.0067 78.4567C37.2889 77.4033 39.5711 76.8767 41.8533 76.8767C44.1356 76.8767 46.33 77.3156 48.4367 78.1933L48.4367 42.38C48.4367 41.8533 48.5244 41.4144 48.7 41.0633C49.0511 40.5367 49.49 40.1856 50.0167 40.01L95.8367 25Z" fill="white"/>
<defs>
<linearGradient id="paint0_linear_33_16" x1="118.5" y1="68" x2="56" y2="68" gradientUnits="userSpaceOnUse">
<stop stop-color="#9A7EC2"/>
<stop offset="1" stop-color="#9276BC"/>
</linearGradient>
</defs>
</svg>
