<svg width="135" height="135" viewBox="0 0 135 135" fill="none" xmlns="http://www.w3.org/2000/svg">
<circle cx="67.5" cy="67.5" r="61" fill="url(#paint0_linear_33_15)" stroke="#B087ED" stroke-width="13"/>
<path d="M94.48 111.24C95.7733 111.24 96.7433 110.701 97.39 109.623C101.486 103.803 104.611 97.4444 106.767 90.5467C108.922 83.4333 110 76.1044 110 68.56C110 60.8 108.814 53.2555 106.443 45.9267C104.288 38.5978 101.054 32.0233 96.7433 26.2033C95.8811 25.1255 94.8033 24.5867 93.51 24.5867C92.4322 24.5867 91.4622 25.0178 90.6 25.88L89.9533 26.5267C89.3067 27.6044 88.9833 28.79 88.9833 30.0833C88.9833 31.3767 89.3067 32.4544 89.9533 33.3167C93.4022 38.2744 96.0967 43.7711 98.0367 49.8067C99.9767 55.8422 100.947 62.0933 100.947 68.56C100.947 74.8111 100.084 80.8467 98.36 86.6667C96.6356 92.4867 94.0489 97.7678 90.6 102.51C89.9533 103.372 89.63 104.45 89.63 105.743C89.63 107.037 90.0611 108.222 90.9233 109.3L91.57 109.947C92.2167 110.809 93.1867 111.24 94.48 111.24ZM64.41 101.863C64.41 102.941 64.1945 103.911 63.7633 104.773C63.3322 105.42 62.7933 105.959 62.1467 106.39C61.7156 106.821 61.0689 107.037 60.2067 107.037C59.3445 107.037 58.59 106.606 57.9433 105.743L35.31 83.4333L23.3467 83.4333C22.0533 83.4333 20.9756 83.0022 20.1133 82.14C19.4667 81.0622 19.1433 79.7689 19.1433 78.26L19.1433 58.5367C19.1433 57.2433 19.4667 56.1656 20.1133 55.3033C20.9756 54.2256 22.0533 53.6867 23.3467 53.6867L35.31 53.6867L57.9433 31.0533C58.3744 30.6222 59.0211 30.2989 59.8833 30.0833C60.7456 29.8678 61.5 29.9755 62.1467 30.4067C62.7933 30.8378 63.3322 31.4844 63.7633 32.3467C64.1944 33.2089 64.41 34.0711 64.41 34.9333L64.41 101.863ZM80.5767 94.1033C80.3611 94.1033 80.2533 94.1033 80.2533 94.1033C78.96 94.1033 77.99 93.6722 77.3433 92.81L76.6967 92.1633C76.05 91.3011 75.6189 90.2233 75.4033 88.93C75.4033 87.6367 75.7267 86.5589 76.3733 85.6967C79.3911 80.5233 80.9 74.8111 80.9 68.56C80.9 61.6622 79.1756 55.6267 75.7267 50.4533C75.08 49.3755 74.7567 48.19 74.7567 46.8967C74.7567 45.6033 75.1878 44.5255 76.05 43.6633L76.3733 43.0167C77.2356 41.9389 78.3133 41.5078 79.6067 41.7233C80.9 41.7233 81.87 42.2622 82.5167 43.34C87.4744 50.6689 89.9533 59.0755 89.9533 68.56C89.9533 77.3978 87.7978 85.2655 83.4867 92.1633C82.6245 93.4567 81.6545 94.1033 80.5767 94.1033Z" fill="white"/>
<defs>
<linearGradient id="paint0_linear_33_15" x1="118.5" y1="68" x2="56" y2="68" gradientUnits="userSpaceOnUse">
<stop stop-color="#9A7EC2"/>
<stop offset="1" stop-color="#9276BC"/>
</linearGradient>
</defs>
</svg>
